<svg width="2063" height="3471" viewBox="0 0 2063 3471" fill="none" xmlns="http://www.w3.org/2000/svg">
<g filter="url(#filter0_d_53_2)">
<path d="M1019.83 1399.82C1000.56 1312.62 995 1095 995 1095L1559 1114L1528.31 1251.41C1523.21 1282.46 1520.49 1313.93 1520.16 1345.5C1520.16 1345.5 1465.43 1458.92 1303.22 1478.8C1203.47 1489.39 1103.48 1461.52 1019.83 1399.82Z" fill="#FEBD99"/>
<path d="M363.677 1019C363.677 1019 344.634 1023.62 338.024 1051.53C331.413 1079.43 328.847 1132.66 346.213 1149.85C363.579 1167.03 387.161 1174.15 402.454 1167.59C431.167 1155.2 421.102 1100.41 397.619 1088.21C360.125 1068.62 364.072 1046.26 364.072 1046.26L363.677 1019Z" fill="#FEBD99"/>
<path d="M1481.63 2663.55L1738.94 2660.05C1735.05 2790.53 1707.76 2935.3 1703.27 3057.67C1702.42 3080.71 1704.12 3236.71 1692.59 3284.17C1675.49 3355.4 1564.12 3345.73 1558.18 3303.15C1552.23 3260.58 1565.33 3078.4 1565.09 3059.61C1566.06 2981.1 1517.54 2848.59 1492.3 2707.69C1490.97 2701.15 1482.72 2670.74 1481.63 2663.55Z" fill="#FEBD99"/>
<path d="M1516.32 3333.19C1514.02 3375.03 1518.87 3403.23 1535.01 3429.12C1551.14 3455.01 1586.93 3465.52 1625.02 3461.19C1663.11 3456.86 1713.22 3441.47 1728.62 3406.36C1744.03 3371.25 1745.12 3346.46 1741.73 3307.21L1516.32 3333.19Z" fill="#263238"/>
<path d="M1703.63 3043.11C1718.8 3045.23 1715.77 3101.44 1717.34 3158.02C1718.8 3218.75 1739.06 3245.28 1741 3295.14C1743.3 3352.08 1736.02 3376.87 1705.7 3408.85C1675.37 3440.82 1579.16 3467.18 1540.34 3415.02C1508.68 3372.54 1513.05 3328.49 1523.84 3272.65C1535.01 3214.88 1543.38 3174.33 1546.17 3130.1C1548.71 3087.8 1550.29 3047.17 1564.24 3043.11C1564.24 3049.38 1564.24 3057.3 1564.24 3063.48C1564.24 3068.18 1563.03 3091.12 1571.52 3091.95C1572.96 3086.74 1573.73 3081.43 1573.83 3076.1C1573.54 3071.27 1575.67 3066.53 1579.77 3062.83C1584.91 3059.9 1591.18 3058.35 1597.6 3058.41C1612.95 3057.12 1628.38 3056.47 1643.83 3056.47C1651.47 3056.47 1659.11 3056.47 1666.75 3057.49C1673.36 3057.9 1679.83 3059.11 1685.92 3061.08C1687.7 3061.67 1689.3 3062.54 1690.6 3063.63C1691.9 3064.73 1692.87 3066.03 1693.44 3067.44C1693.93 3069.57 1693.93 3071.76 1693.44 3073.89C1692.72 3077.77 1692.72 3081.71 1693.44 3085.59C1693.44 3087.25 1695.02 3089.46 1697.2 3089.19C1699.39 3088.91 1699.99 3087.34 1700.24 3085.96C1701.09 3079.23 1700.24 3074.17 1701.33 3066.24C1701.33 3062.65 1701.33 3057.58 1701.33 3053.89C1701.33 3050.21 1703.63 3046.71 1703.63 3043.11Z" fill="#455A64"/>
<path d="M1740.03 3278.92C1740.03 3287.12 1742.45 3341.49 1721.95 3349.69C1701.45 3357.89 1693.81 3315.5 1693.81 3315.5C1693.81 3315.5 1646.49 3300.39 1572.49 3318.54C1574.92 3327.76 1560.36 3355.4 1541.44 3347.85C1522.51 3340.29 1523.36 3278.27 1523.36 3277.44C1513.29 3330.98 1510.14 3373.83 1540.83 3415.02C1579.65 3467.18 1675.73 3440.82 1706.18 3408.85C1736.63 3376.87 1743.79 3352.08 1741.48 3295.14C1741.24 3289.42 1740.76 3284.08 1740.03 3278.92Z" fill="#37474F"/>
<path d="M1687.74 3318.63C1685.44 3339 1712.73 3334.12 1717.71 3305.55C1722.68 3276.98 1710.91 3207.32 1717.71 3158.11C1716.25 3101.53 1719.16 3045.32 1704 3043.2C1703.94 3043.88 1703.94 3044.56 1704 3045.23L1702.3 3073.89C1702.3 3078.04 1702.3 3081.72 1701.57 3086.05C1696.36 3127.52 1693.44 3208.15 1693.2 3246.39C1693.11 3270.53 1691.29 3294.65 1687.74 3318.63Z" fill="#263238"/>
<path d="M1580.62 3318.63C1577.14 3294.61 1575.44 3270.46 1575.52 3246.3C1575.52 3208.33 1572.25 3128.72 1567.28 3086.97C1565.41 3079.23 1564.63 3071.35 1564.97 3063.48C1564.97 3057.67 1564.97 3050.48 1564.97 3044.4C1564.91 3043.97 1564.91 3043.54 1564.97 3043.11C1554.9 3045.97 1551.38 3068.36 1549.2 3096.56C1549.2 3112.96 1549.2 3133.42 1551.26 3158.02C1557.93 3207.32 1546.17 3277.35 1551.26 3305.46C1556.36 3333.56 1583.05 3339 1580.62 3318.63Z" fill="#263238"/>
<path d="M1006.19 2921.57C1008.13 2881.21 972.467 2505.98 972.467 2505.98L1215.95 2623.19C1163.66 2860.38 1152.5 2916.32 1151.53 2954.93C1152.68 2958.17 1153.17 2961.52 1152.98 2964.88C1152.98 3010.95 1084.2 3035.83 1030.82 3066.24C985.483 3093.27 937.139 3117.26 886.334 3137.93C847.513 3152.68 768.78 3154.06 758.953 3135.08C823.978 3097.39 918.482 3040.99 970.284 2997.96C994.91 2977.96 1004.25 2962.21 1006.19 2921.57Z" fill="#FEBD99"/>
<path d="M648.192 3185.3C644.796 3185.3 640.914 3210.55 658.99 3222.16C679.977 3235.79 740.149 3259.02 821.188 3251.37C902.226 3243.72 946.142 3226.03 978.897 3205.29C1011.65 3184.56 1056.78 3155.63 1093.42 3149.45C1127.51 3143.74 1164.51 3132.04 1175.43 3124.02C1186.35 3116 1184.77 3080.43 1184.77 3080.43L648.192 3185.3Z" fill="#263238"/>
<path d="M1152.14 2944.05C1155.09 2944.19 1157.91 2945.08 1160.11 2946.59C1162.31 2948.1 1163.78 2950.13 1164.27 2952.35C1166.69 2962.11 1169.48 2990.68 1174.82 3006.71C1183.14 3035.03 1185.84 3064.13 1182.83 3093.06C1178.34 3111.49 1122.78 3123.93 1087.35 3134.25C1045.55 3148.14 1006.77 3166.78 972.346 3189.53C934.253 3213.4 854.186 3238.19 801.414 3237.91C738.815 3237.91 667.967 3222.25 652.439 3200.22C632.422 3172.58 648.071 3157.19 740.756 3124.57C758.225 3118.4 819.853 3090.66 840.841 3080.62C897.738 3053.52 954.027 3015.65 980.11 2967.55C982.221 2961.65 986.931 2956.48 993.455 2952.9C999.109 2951.04 1005.4 2950.58 1011.41 2951.61C1026.89 2953.28 1041.94 2956.73 1056.05 2961.84C1068.18 2966.35 1086.14 2971.6 1085.9 2983.68C1085.57 2987.91 1084.38 2992.07 1082.38 2996.02C1081.29 2998.51 1080.44 3001.74 1083.23 3003.21C1086.02 3004.69 1089.54 3003.21 1091.96 3001.37C1101.06 2994.31 1109.38 2986.7 1116.83 2978.61C1121.16 2974.43 1126.08 2970.63 1131.51 2967.27C1137.03 2964.93 1142.34 2962.32 1147.4 2959.44C1153.23 2955.02 1151.77 2949.67 1152.14 2944.05Z" fill="#455A64"/>
<path d="M972.468 3189.35C988.724 3179.21 1005.83 3169.45 1023.06 3160.69C1023.06 3160.69 913.873 3211.1 870.078 3188.34C841.69 3173.59 855.156 3155.72 855.884 3150C856.612 3144.29 786.492 3119.78 758.832 3117.29C751.189 3120.52 744.759 3123.19 740.756 3124.57C648.071 3157.19 632.422 3172.95 652.439 3200.22C668.452 3222.25 719.526 3239.39 800.322 3239.39C853.215 3239.2 934.375 3213.22 972.468 3189.35Z" fill="#37474F"/>
<path d="M863.405 3133.51C805.781 3151.02 830.408 3159.22 846.543 3161.15C862.678 3163.09 959.729 3119.87 1018.81 3084.3C1080.56 3047.44 1119.38 3006.71 1142.31 2993.08C1150.92 2988.01 1160.14 2981.74 1168.27 2975.94C1166.81 2966.72 1165.48 2957.51 1164.39 2952.9C1163.9 2950.68 1162.43 2948.65 1160.23 2947.14C1158.03 2945.64 1155.22 2944.74 1152.26 2944.61C1152.26 2950.23 1153.35 2955.57 1147.65 2959.81C1142.58 2962.69 1137.27 2965.3 1131.75 2967.64C1126.33 2971 1121.4 2974.8 1117.07 2978.98C1109.62 2987.07 1101.31 2994.68 1092.21 3001.74C1041.74 3049.75 921.03 3115.63 863.405 3133.51Z" fill="#263238"/>
<path d="M850.667 3154.15C849.816 3154.14 848.977 3154 848.204 3153.73C847.43 3153.46 846.74 3153.07 846.179 3152.58C833.768 3143.03 818.859 3135.57 802.414 3130.66C785.97 3125.76 768.354 3123.53 750.704 3124.11C749.955 3124.17 749.198 3124.12 748.476 3123.96C747.753 3123.8 747.08 3123.53 746.495 3123.17C745.909 3122.81 745.422 3122.37 745.062 3121.86C744.702 3121.36 744.475 3120.81 744.395 3120.24C744.316 3119.67 744.385 3119.1 744.598 3118.55C744.811 3118 745.164 3117.49 745.637 3117.04C746.11 3116.6 746.694 3116.23 747.355 3115.95C748.016 3115.68 748.742 3115.51 749.491 3115.45C769.027 3114.74 788.539 3117.19 806.734 3122.64C824.93 3128.09 841.393 3136.41 855.035 3147.06C855.526 3147.49 855.898 3147.99 856.128 3148.53C856.358 3149.07 856.442 3149.65 856.374 3150.21C856.306 3150.78 856.088 3151.33 855.732 3151.84C855.377 3152.34 854.892 3152.78 854.307 3153.14C853.272 3153.77 851.994 3154.12 850.667 3154.15Z" fill="#EBEBEB"/>
<path d="M900.891 3130.65C900.058 3130.64 899.237 3130.5 898.484 3130.23C897.73 3129.96 897.062 3129.57 896.524 3129.09C884.082 3119.57 869.168 3112.12 852.731 3107.22C836.294 3102.32 818.694 3100.07 801.05 3100.61C800.301 3100.68 799.542 3100.63 798.817 3100.48C798.091 3100.32 797.414 3100.06 796.822 3099.7C796.231 3099.35 795.737 3098.91 795.37 3098.41C795.002 3097.91 794.768 3097.36 794.681 3096.79C794.593 3096.22 794.653 3095.64 794.859 3095.09C795.065 3094.54 795.411 3094.03 795.879 3093.58C796.346 3093.13 796.926 3092.75 797.584 3092.47C798.242 3092.19 798.966 3092.02 799.715 3091.95C819.271 3091.23 838.807 3093.67 857.024 3099.12C875.242 3104.57 891.726 3112.9 905.38 3123.56C906.327 3124.45 906.77 3125.59 906.61 3126.73C906.451 3127.87 905.704 3128.92 904.531 3129.64C903.534 3130.32 902.231 3130.68 900.891 3130.65Z" fill="#EBEBEB"/>
<path d="M951.48 3108.35C950.622 3108.38 949.769 3108.25 948.989 3107.98C948.209 3107.7 947.525 3107.3 946.991 3106.79C934.558 3097.26 919.645 3089.81 903.206 3084.9C886.767 3080 869.162 3077.76 851.517 3078.31C850.009 3078.42 848.507 3078.07 847.33 3077.35C846.152 3076.63 845.391 3075.58 845.208 3074.44C845.124 3073.88 845.191 3073.31 845.403 3072.76C845.616 3072.22 845.97 3071.71 846.446 3071.27C846.921 3070.83 847.507 3070.47 848.17 3070.21C848.833 3069.95 849.558 3069.79 850.303 3069.74C869.844 3069 889.367 3071.44 907.569 3076.89C925.77 3082.34 942.23 3090.68 955.847 3101.35C956.794 3102.24 957.237 3103.38 957.077 3104.52C956.918 3105.66 956.171 3106.71 954.998 3107.43C954.004 3108.04 952.759 3108.37 951.48 3108.35Z" fill="#EBEBEB"/>
<path d="M997.822 3083.01C996.956 3083.02 996.099 3082.87 995.32 3082.58C994.541 3082.3 993.861 3081.88 993.334 3081.35C980.932 3071.79 966.024 3064.32 949.577 3059.41C933.13 3054.51 915.51 3052.28 897.858 3052.88C897.115 3052.96 896.36 3052.92 895.636 3052.77C894.913 3052.62 894.237 3052.36 893.648 3052.01C893.059 3051.66 892.57 3051.22 892.209 3050.72C891.849 3050.22 891.625 3049.67 891.55 3049.1C891.466 3048.53 891.532 3047.96 891.743 3047.41C891.954 3046.86 892.307 3046.34 892.781 3045.9C893.255 3045.45 893.84 3045.08 894.504 3044.81C895.167 3044.54 895.895 3044.37 896.646 3044.31C916.185 3043.57 935.706 3046.01 953.907 3051.46C972.107 3056.91 988.567 3065.25 1002.19 3075.92C1003.14 3076.81 1003.58 3077.95 1003.42 3079.09C1003.26 3080.23 1002.51 3081.28 1001.34 3082C1000.36 3082.64 999.114 3082.99 997.822 3083.01Z" fill="#EBEBEB"/>
<path d="M1043.44 3057.58C1042.57 3057.59 1041.71 3057.44 1040.93 3057.15C1040.16 3056.86 1039.48 3056.44 1038.95 3055.92C1019.05 3036.94 971.861 3023.95 933.768 3027.08C932.969 3027.19 932.148 3027.16 931.363 3027C930.579 3026.84 929.849 3026.56 929.225 3026.16C928.601 3025.77 928.099 3025.27 927.752 3024.71C927.405 3024.16 927.222 3023.55 927.217 3022.93C927.046 3021.8 927.473 3020.66 928.405 3019.76C929.336 3018.86 930.697 3018.28 932.191 3018.14C974.53 3014.64 1025.12 3028.74 1047.56 3050.21C1048.46 3051.12 1048.87 3052.26 1048.69 3053.4C1048.51 3054.53 1047.76 3055.57 1046.59 3056.29C1045.72 3056.94 1044.63 3057.38 1043.44 3057.58Z" fill="#EBEBEB"/>
<path d="M1533.67 1302.62C1568.06 1358.92 1664.62 1451.62 1695.53 1514.56C1758.91 1644.3 1728.72 1738.29 1710.39 1908.95C1690.74 2091.77 1671.93 2236.35 1671.93 2236.35C1675.52 2268.78 1734.23 2332.18 1741.78 2475.93C1748.85 2610.19 1729.8 2780.85 1729.8 2780.85C1729.8 2780.85 1598.01 2837.06 1500.49 2780.29C1500.49 2780.29 1406.44 2434.93 1378.89 2266.85C1354.92 2120.15 1327.37 2001.74 1327.37 2001.74L1252.85 2274.59C1252.85 2274.59 1258.12 2348.31 1266.03 2410.78C1278.01 2509.66 1206.13 2703.72 1206.13 2703.72C1206.13 2703.72 1069.91 2735.05 986.762 2678.29C986.762 2678.29 954.414 2395.03 957.889 2254.41C961.722 2094.53 998.024 1558.51 1023.54 1329.99L1533.67 1302.62Z" fill="#FF4995"/>
<path opacity="0.3" d="M1531.03 1302.62C1565.85 1358.92 1663.63 1451.62 1694.93 1514.56C1759.1 1644.3 1728.53 1738.29 1709.97 1908.95C1690.08 2091.77 1671.03 2236.35 1671.03 2236.35C1674.67 2268.79 1734.11 2332.19 1741.76 2475.94C1748.91 2610.2 1729.62 2780.86 1729.62 2780.86C1729.62 2780.86 1596.18 2837.07 1497.43 2780.3C1497.43 2780.3 1402.2 2434.93 1374.29 2266.85C1350.03 2120.16 1322.13 2001.75 1322.13 2001.75L1246.67 2274.6C1246.67 2274.6 1252.01 2348.31 1260.01 2410.79C1272.15 2509.66 1199.36 2703.73 1199.36 2703.73C1199.36 2703.73 1061.42 2735.06 977.23 2678.3C977.23 2678.3 944.475 2395.03 947.993 2254.42C951.875 2094.54 988.634 1558.51 1014.47 1329.99L1531.03 1302.62Z" fill="white"/>
<path opacity="0.2" d="M1325.98 1977.7L1274.42 1658.13C1274.42 1658.13 1173.73 1648.18 1088.2 1572.06C1088.2 1572.06 1105.31 1645.14 1228.81 1681.44L1296.86 1966.27L1250.52 2250.73L1325.98 1977.7Z" fill="#C92945"/>
<path d="M1570.19 3320.11C1569.06 3320.11 1567.97 3319.86 1567.04 3319.38C1566.11 3318.91 1565.39 3318.23 1564.97 3317.44C1564.41 3316.36 1564.42 3315.16 1565.01 3314.09C1565.6 3313.02 1566.72 3312.17 1568.12 3311.72C1609.33 3300.64 1654.3 3300.64 1695.51 3311.72C1696.89 3312.14 1698.01 3312.96 1698.62 3313.99C1699.22 3315.03 1699.27 3316.21 1698.74 3317.27C1698.22 3318.33 1697.17 3319.2 1695.81 3319.68C1694.46 3320.16 1692.91 3320.21 1691.5 3319.83C1652.93 3309.6 1610.94 3309.6 1572.37 3319.83L1570.19 3320.11Z" fill="#EBEBEB"/>
<path d="M1563.64 3275.05C1562.31 3275.04 1561.02 3274.67 1560.01 3274.02C1558.99 3273.37 1558.31 3272.46 1558.08 3271.47C1557.85 3270.47 1558.09 3269.45 1558.75 3268.57C1559.41 3267.69 1560.45 3267.02 1561.69 3266.66C1607.55 3255.6 1656.8 3255.6 1702.66 3266.66C1704.06 3267.08 1705.2 3267.88 1705.85 3268.9C1706.5 3269.93 1706.62 3271.1 1706.18 3272.19C1705.95 3272.74 1705.57 3273.25 1705.08 3273.68C1704.59 3274.12 1703.98 3274.48 1703.3 3274.73C1702.63 3274.99 1701.89 3275.14 1701.13 3275.18C1700.38 3275.22 1699.62 3275.14 1698.9 3274.96C1655.44 3264.73 1608.92 3264.73 1565.45 3274.96C1564.86 3275.06 1564.24 3275.1 1563.64 3275.05Z" fill="#EBEBEB"/>
<path d="M1700.84 3232.38C1700.04 3232.52 1699.22 3232.52 1698.42 3232.38C1636.79 3211.01 1567.52 3231.65 1566.79 3231.83C1566.09 3232.09 1565.32 3232.24 1564.54 3232.26C1563.76 3232.29 1562.98 3232.19 1562.25 3231.97C1561.52 3231.76 1560.86 3231.43 1560.3 3231.02C1559.74 3230.6 1559.3 3230.1 1559.01 3229.55C1558.72 3229 1558.58 3228.41 1558.6 3227.81C1558.62 3227.22 1558.81 3226.64 1559.14 3226.1C1559.47 3225.56 1559.94 3225.08 1560.53 3224.69C1561.11 3224.29 1561.8 3224 1562.54 3223.81C1565.58 3222.89 1636.91 3201.61 1703.15 3224.46C1704.35 3224.86 1705.32 3225.56 1705.92 3226.45C1706.52 3227.33 1706.7 3228.34 1706.43 3229.32C1706.16 3230.29 1705.45 3231.16 1704.44 3231.79C1703.42 3232.41 1702.15 3232.75 1700.84 3232.75V3232.38Z" fill="#EBEBEB"/>
<path d="M1702.06 3192.58C1701.26 3192.71 1700.43 3192.71 1699.63 3192.58C1678.68 3185.46 1656.02 3181.68 1633.07 3181.47C1610.12 3181.27 1587.35 3184.64 1566.18 3191.38C1565.44 3191.68 1564.62 3191.85 1563.77 3191.88C1562.93 3191.91 1562.09 3191.79 1561.32 3191.55C1560.54 3191.3 1559.84 3190.93 1559.28 3190.45C1558.72 3189.97 1558.3 3189.41 1558.06 3188.8C1557.71 3188.29 1557.5 3187.73 1557.45 3187.15C1557.4 3186.58 1557.5 3186 1557.75 3185.46C1558 3184.92 1558.39 3184.42 1558.9 3183.99C1559.41 3183.57 1560.03 3183.23 1560.72 3182.99C1583.4 3175.6 1607.85 3171.88 1632.53 3172.09C1657.2 3172.29 1681.55 3176.42 1704 3184.19C1704.69 3184.43 1705.31 3184.77 1705.82 3185.19C1706.34 3185.61 1706.74 3186.11 1707 3186.65C1707.26 3187.19 1707.37 3187.76 1707.34 3188.34C1707.3 3188.91 1707.11 3189.48 1706.79 3190C1706.39 3190.72 1705.73 3191.34 1704.9 3191.79C1704.07 3192.25 1703.08 3192.52 1702.06 3192.58Z" fill="#EBEBEB"/>
<path d="M1703.63 3147.88C1702.75 3147.91 1701.87 3147.75 1701.09 3147.42C1638 3123.74 1567.03 3147.42 1566.3 3147.42C1565.62 3147.67 1564.88 3147.8 1564.13 3147.82C1563.38 3147.84 1562.62 3147.75 1561.92 3147.54C1561.22 3147.33 1560.58 3147.02 1560.04 3146.62C1559.5 3146.22 1559.07 3145.74 1558.78 3145.21C1558.2 3144.16 1558.18 3142.98 1558.73 3141.91C1559.27 3140.85 1560.33 3139.98 1561.69 3139.5C1564.73 3138.49 1638.12 3114.07 1706.18 3139.5C1707.53 3140.01 1708.56 3140.91 1709.04 3142C1709.51 3143.09 1709.4 3144.28 1708.73 3145.3C1708.3 3146.06 1707.59 3146.71 1706.69 3147.17C1705.78 3147.63 1704.72 3147.88 1703.63 3147.88Z" fill="#EBEBEB"/>
<path d="M285.98 1185.39L451.888 1216.84L782.864 1172.42C782.864 1172.42 931.761 824.522 954.19 770.092C976.619 715.661 1009.84 675.898 1106.85 651L1156.17 885.25C1155.28 893.393 1019.63 1138.6 923.57 1277.91C889.604 1327.04 864.702 1343.71 789.6 1345.87C597.944 1351.26 344.533 1286.23 318.091 1260.48C283.413 1226.88 287.934 1185.69 285.98 1185.39Z" fill="#FEBD99"/>
<path d="M993.794 1089C993.055 1094.81 997.171 1149.45 997.171 1149.45C1073.92 1205.76 1319.77 1234.23 1577.76 1159.31L1632.44 975.017C1632.44 975.017 1446.87 903.879 1572.17 665.216L1437.47 656.001L1198.16 650.749H1119.1C1054.51 705.44 999.93 768.467 957.269 837.625C926.234 888.859 886.226 963.591 993.794 1089Z" fill="#455A64"/>
<path d="M1254.06 1649.78L1407.64 1568.17L1633.81 1325.07C1633.81 1325.07 1490.13 970.009 1466.98 915.008C1443.82 860.007 1440.09 809.155 1497.5 729L1711.47 873.246C1716.87 879.91 1794.06 1149.63 1823.04 1314.91C1833.19 1373.25 1826.14 1401.52 1768.9 1450.76C1622.72 1576.3 1375.42 1688.21 1335.43 1685.69C1283.1 1682.49 1255.82 1648.77 1254.06 1649.78Z" fill="#FEBD99"/>
<path d="M275.659 1013.09C245.674 961.452 173.702 928.803 123.358 958.599C115.424 963.358 108.198 969.311 101.852 976.316C58.2559 1023.64 39.301 1120.24 59.5352 1192C62.8017 1204.16 67.6943 1215.91 74.0363 1226.85C104.046 1278.57 175.942 1310.95 226.261 1281.07C234.202 1276.36 241.408 1270.41 247.69 1263.36C291.286 1216.04 310.241 1119.44 290.007 1047.68C286.746 1035.62 281.908 1023.96 275.659 1013.09Z" fill="#BBBBBB"/>
<path d="M247.562 1263.2C291.158 1215.88 310.113 1119.28 289.879 1047.52C269.645 975.756 217.892 956.034 174.32 1003.45C130.749 1050.87 111.769 1147.37 132.003 1219.14C152.237 1290.9 203.991 1310.62 247.562 1263.2Z" fill="#37474F"/>
<path d="M196.774 1083.08C213.544 1064.87 233.408 1072.46 241.178 1100.02C244.712 1115.18 245.084 1130.6 242.266 1145.02C239.448 1159.44 233.517 1172.47 224.956 1183.03C208.186 1201.25 188.245 1193.67 180.474 1166.11C176.941 1150.94 176.575 1135.51 179.408 1121.08C182.24 1106.66 188.19 1093.64 196.774 1083.08Z" fill="#BBBBBB"/>
<path d="M221.195 1121.68C222.411 1126.87 222.545 1132.15 221.585 1137.09C220.625 1142.02 218.6 1146.48 215.672 1150.1C214.719 1151.37 213.477 1152.32 212.049 1152.87C210.621 1153.43 209.048 1153.57 207.463 1153.29L206.358 1152.86C204.938 1152.01 203.672 1150.82 202.658 1149.39C201.644 1147.96 200.908 1146.33 200.509 1144.63C199.319 1139.43 199.206 1134.15 200.178 1129.21C201.151 1124.28 203.182 1119.82 206.11 1116.19C207.048 1114.91 208.287 1113.94 209.719 1113.39C211.15 1112.83 212.73 1112.7 214.318 1113L215.423 1113.43C216.835 1114.29 218.091 1115.49 219.092 1116.92C220.093 1118.35 220.813 1119.98 221.195 1121.68Z" fill="#37474F"/>
<path d="M465.468 1215.15C466.671 1220.34 466.797 1225.61 465.838 1230.55C464.879 1235.48 462.861 1239.94 459.944 1243.57C458.604 1245.13 456.877 1246.22 454.93 1246.74C453.419 1247.04 451.808 1246.86 450.271 1246.22L207.59 1153.74L206.485 1153.31C205.065 1152.45 203.799 1151.26 202.784 1149.84C201.77 1148.41 201.035 1146.78 200.635 1145.08C199.445 1139.88 199.332 1134.6 200.305 1129.66C201.277 1124.72 203.309 1120.26 206.236 1116.64C207.174 1115.35 208.414 1114.39 209.845 1113.83C211.277 1113.28 212.857 1113.15 214.445 1113.45L215.55 1113.88L458.154 1206.38C459.909 1207.01 461.53 1208.17 462.826 1209.73C464.123 1211.28 465.039 1213.16 465.468 1215.15Z" fill="#FAFAFA"/>
<path d="M662.654 1160.54C632.747 1108.89 560.698 1076.26 510.353 1106.05C502.428 1110.76 495.217 1116.68 488.9 1123.66C445.303 1170.99 426.348 1267.59 446.583 1339.35C449.861 1351.49 454.725 1363.25 461.007 1374.21C490.939 1425.95 562.912 1458.31 613.231 1428.43C621.122 1423.71 628.305 1417.8 634.607 1410.83C678.281 1363.49 697.134 1266.82 676.9 1195.06C673.66 1183.04 668.857 1171.4 662.654 1160.54Z" fill="#BBBBBB"/>
<path d="M634.582 1410.75C678.256 1363.4 697.108 1266.73 676.874 1194.97C656.64 1123.21 604.989 1103.56 561.315 1150.9C517.642 1198.25 498.764 1294.83 518.998 1366.59C539.233 1438.35 590.986 1458.07 634.582 1410.75Z" fill="#37474F"/>
<path d="M583.745 1230.45C600.515 1212.23 620.456 1219.81 628.251 1247.46C631.769 1262.62 632.124 1278.03 629.287 1292.44C626.451 1306.85 620.503 1319.85 611.926 1330.39C595.156 1348.61 575.293 1341.02 567.522 1313.46C563.989 1298.29 563.616 1282.88 566.435 1268.45C569.253 1254.03 575.183 1241.01 583.745 1230.45Z" fill="#BBBBBB"/>
<path d="M608.268 1269.12C609.47 1274.31 609.597 1279.58 608.638 1284.52C607.679 1289.45 605.66 1293.91 602.744 1297.54C601.791 1298.83 600.539 1299.79 599.095 1300.35C597.651 1300.91 596.059 1301.04 594.458 1300.74L593.353 1300.32C591.948 1299.44 590.698 1298.24 589.699 1296.82C588.699 1295.39 587.974 1293.76 587.581 1292.07C586.378 1286.87 586.258 1281.58 587.231 1276.64C588.204 1271.7 590.243 1267.24 593.182 1263.63C594.105 1262.35 595.332 1261.39 596.751 1260.83C598.17 1260.28 599.738 1260.15 601.313 1260.46L602.418 1260.88C603.848 1261.72 605.124 1262.91 606.14 1264.34C607.157 1265.77 607.886 1267.41 608.268 1269.12Z" fill="#37474F"/>
<path d="M645.04 1283.14C646.249 1288.33 646.379 1293.6 645.42 1298.54C644.46 1303.48 642.438 1307.94 639.516 1311.56C638.203 1313.16 636.467 1314.25 634.501 1314.73C632.989 1315.01 631.382 1314.84 629.843 1314.21L594.458 1300.74L593.353 1300.32C591.948 1299.44 590.699 1298.25 589.699 1296.82C588.699 1295.39 587.975 1293.76 587.581 1292.07C586.378 1286.87 586.259 1281.58 587.232 1276.64C588.205 1271.7 590.243 1267.24 593.182 1263.63C594.106 1262.35 595.332 1261.39 596.751 1260.83C598.17 1260.28 599.738 1260.15 601.313 1260.46L602.418 1260.88L637.803 1274.35C639.543 1275.01 641.145 1276.18 642.426 1277.73C643.706 1279.29 644.612 1281.16 645.04 1283.14Z" fill="#FAFAFA"/>
<path d="M645.015 1283.05C646.224 1288.24 646.354 1293.51 645.395 1298.45C644.435 1303.39 642.413 1307.85 639.491 1311.47C638.553 1312.76 637.314 1313.72 635.882 1314.27C634.45 1314.83 632.871 1314.96 631.283 1314.66L630.178 1314.23C628.751 1313.38 627.479 1312.2 626.463 1310.77C625.447 1309.34 624.716 1307.71 624.328 1306C623.132 1300.8 623.016 1295.52 623.988 1290.58C624.961 1285.64 626.996 1281.18 629.929 1277.56C630.859 1276.28 632.092 1275.33 633.517 1274.8C634.941 1274.26 636.512 1274.15 638.086 1274.48L639.268 1274.89C640.673 1275.73 641.924 1276.91 642.922 1278.33C643.92 1279.75 644.636 1281.36 645.015 1283.05Z" fill="#E0E0E0"/>
<path d="M326.296 1252C281.319 1221.62 238.124 1221.88 245.917 1147.69C252.522 1114.95 261.651 1112.66 297.87 1100.22C313.827 1094.78 334.98 1090.66 347.671 1103.49C349.093 1105.08 350.657 1106.57 352.347 1107.94C356.075 1110.08 360.378 1111.3 364.816 1111.48C373.284 1111.88 381.323 1114.89 387.527 1119.99C391.758 1124.18 393.39 1130.08 397.547 1134.33C401.514 1137.67 405.784 1140.71 410.312 1143.43C413.585 1145.93 416.227 1149 418.068 1152.45C419.909 1155.9 420.908 1159.66 421 1163.47C420.677 1167.83 419.281 1172.07 416.91 1175.91C414.538 1179.74 411.249 1183.07 407.269 1185.67L385.004 1174.14C375.652 1168.45 356.503 1188.55 364.742 1199.22C377.508 1216.12 326.296 1252 326.296 1252Z" fill="#FEBD99"/>
<path d="M1319.98 1024.56C1407.45 1006.67 1429.45 962.895 1435.69 930.694C1435.69 930.694 1452.21 1024.56 1327.08 1046.48C1195.1 1069.5 1140.84 985.846 1140.84 985.846C1140.84 985.846 1214.28 1046.14 1319.98 1024.56Z" fill="#37474F"/>
<path d="M1017.04 1024.56C951.441 1006.67 934.943 962.895 930.257 930.694C930.257 930.694 917.868 1024.56 1011.72 1046.48C1110.7 1069.5 1151.4 985.846 1151.4 985.846C1151.4 985.846 1096.32 1046.14 1017.04 1024.56Z" fill="#37474F"/>
<path opacity="0.15" d="M1028.21 1447.98L1022.3 1364.04C1152.88 1423.01 1427.34 1406.33 1554.02 1318.98L1574.07 1408.08C1573.12 1409 1491.84 1481.8 1280.51 1491.85C1069.17 1501.89 1028.21 1447.98 1028.21 1447.98Z" fill="#A4A4A4"/>
<path d="M1289.58 0C1377.07 0 1460.98 30.3388 1522.84 84.3423C1584.7 138.346 1619.46 211.59 1619.46 287.962C1619.46 364.343 1584.71 437.597 1522.85 491.615C1460.98 545.633 1377.08 575.993 1289.58 576.017C1202.07 575.993 1118.15 545.636 1056.27 491.621C994.395 437.605 959.62 364.352 959.592 287.962C959.62 211.582 994.398 138.337 1056.28 84.3367C1118.16 30.3359 1202.08 -3.9082e-06 1289.58 0Z" fill="#434445"/>
<path d="M1082.78 131.771C1046.57 150.662 1002.24 230.37 1007.41 397.158C1011.84 538.513 1064.52 573.252 1090.91 583.204C1117.3 593.156 1168.08 586.89 1217.59 579.518V664.387C1217.59 664.387 1149.6 733.866 1154.25 772.753C1158.89 811.639 1253.05 820.578 1316.81 781.968C1380.57 743.358 1434.2 670.192 1434.2 670.192L1432.19 475.023C1432.19 475.023 1461.43 499.626 1510.52 461.753C1551.16 430.515 1564.57 378.083 1532.69 350.07C1500.81 322.057 1442.22 329.982 1419.95 370.158C1419.95 370.158 1341.2 372.923 1235.95 322.979C1194.96 303.904 1159.72 276.64 1133.1 243.41C1106.48 210.18 1089.24 171.926 1082.78 131.771Z" fill="#FEBD99"/>
<path d="M1188.03 361.036C1188.01 364.529 1189.17 367.95 1191.37 370.871C1193.56 373.792 1196.69 376.084 1200.37 377.461C1204.05 378.838 1208.11 379.239 1212.05 378.614C1215.98 377.988 1219.62 376.365 1222.51 373.946C1225.4 371.526 1227.4 368.418 1228.28 365.01C1229.16 361.601 1228.86 358.043 1227.44 354.779C1226.01 351.515 1223.52 348.689 1220.26 346.656C1217.01 344.622 1213.14 343.47 1209.14 343.343C1203.68 343.339 1198.44 345.18 1194.5 348.478C1190.57 351.776 1188.25 356.277 1188.03 361.036Z" fill="#263238"/>
<g style="mix-blend-mode:multiply" opacity="0.5">
<g style="mix-blend-mode:multiply" opacity="0.5">
<path d="M1183.17 480.828L1135.99 494.19C1136.84 496.955 1138.33 499.54 1140.36 501.791C1142.39 504.041 1144.92 505.911 1147.8 507.288C1150.68 508.664 1153.85 509.52 1157.11 509.803C1160.38 510.085 1163.68 509.79 1166.81 508.933C1173.17 506.998 1178.42 502.992 1181.47 497.754C1184.52 492.516 1185.13 486.451 1183.17 480.828Z" fill="#F28F8F"/>
</g>
</g>
<path d="M1020.82 307.037L1061.88 281.88C1060.14 279.471 1057.86 277.395 1055.17 275.779C1052.49 274.163 1049.45 273.041 1046.25 272.481C1043.05 271.921 1039.76 271.934 1036.56 272.52C1033.37 273.106 1030.35 274.253 1027.68 275.891C1022.16 279.312 1018.37 284.46 1017.09 290.262C1015.81 296.064 1017.15 302.072 1020.82 307.037Z" fill="#263238"/>
<path d="M1030.53 348.688C1030.51 352.182 1031.67 355.602 1033.87 358.523C1036.06 361.444 1039.19 363.736 1042.87 365.113C1046.55 366.49 1050.61 366.891 1054.55 366.266C1058.49 365.641 1062.12 364.017 1065.01 361.598C1067.9 359.179 1069.91 356.071 1070.78 352.662C1071.66 349.254 1071.36 345.695 1069.94 342.431C1068.51 339.167 1066.02 336.342 1062.76 334.308C1059.51 332.275 1055.64 331.123 1051.64 330.996C1046.19 330.992 1040.94 332.832 1037 336.131C1033.07 339.429 1030.75 343.929 1030.53 348.688Z" fill="#263238"/>
<g style="mix-blend-mode:multiply" opacity="0.5">
<g style="mix-blend-mode:multiply" opacity="0.5">
<path d="M1126.59 338.183L1123.85 445.259L1059.24 428.027L1126.59 338.183Z" fill="#F5D0BC"/>
</g>
</g>
<g style="mix-blend-mode:multiply" opacity="0.5">
<g style="mix-blend-mode:multiply" opacity="0.5">
<path d="M1217.48 579.518C1269.52 573.345 1376.56 546.161 1393.13 509.117C1386.5 527.836 1373.46 544.333 1355.77 556.389C1324.1 580.44 1217.69 607.808 1217.69 607.808L1217.48 579.518Z" fill="#F28F8F"/>
</g>
</g>
<path d="M1553.47 175.263C1538.09 174.723 1522.68 175.387 1507.48 177.243C1502.35 177.465 1497.5 179.136 1493.88 181.935C1491.82 184.335 1490.6 187.099 1490.34 189.962C1486.99 208.065 1489.18 226.517 1496.73 243.861C1502.86 255.85 1521.5 262.105 1533.33 270.862C1579.32 304.953 1583 361.666 1564.9 408.684C1546.8 455.702 1510.48 497.611 1486.94 542.961C1463.4 588.311 1450.88 643.252 1484.22 688.914C1497.82 706.533 1520.68 720.19 1517.82 741.041C1514.56 766.582 1485.44 791.082 1472.92 814.017C1459.26 841.363 1454.59 870.865 1459.32 899.921C1463.12 935.938 1480.84 970.272 1510.2 998.544C1532.6 1018.51 1561.49 1033.58 1593.94 1042.22C1626.39 1050.86 1661.25 1052.77 1694.97 1047.75C1709.19 1045.85 1722.65 1041.46 1734.29 1034.93C1754.3 1022.63 1762.19 1002.51 1773.07 984.679C1808.18 927.027 1881.92 885.117 1904.51 823.921C1928.18 759.18 1887.63 690.999 1837.84 635.641C1814.57 609.787 1788.58 584.349 1777.15 554.22C1761.78 513.458 1775.25 469.984 1778.79 427.658C1782.37 386.201 1776.33 344.587 1760.96 304.744C1749.67 275.97 1732.53 242.818 1703.14 222.176C1661.93 193.624 1608.98 177.026 1553.47 175.263Z" fill="#4B404D"/>
<path d="M1256.66 1506.49C1215.82 1460.36 1121.68 1442.84 1058.05 1484.32C1048.03 1490.92 1038.96 1498.58 1031.08 1507.12C976.895 1565.01 956.556 1667.78 985.674 1736.59C990.399 1748.28 997.203 1759.21 1005.84 1768.98C1046.71 1815.19 1140.75 1832.45 1204.34 1790.89C1214.37 1784.34 1223.41 1776.69 1231.21 1768.11C1285.39 1710.23 1305.73 1607.46 1276.61 1538.65C1271.9 1527.06 1265.17 1516.21 1256.66 1506.49Z" fill="#BBBBBB"/>
<path d="M1231.03 1767.98C1285.22 1710.09 1305.56 1607.32 1276.44 1538.51C1247.32 1469.7 1179.78 1460.93 1125.63 1518.91C1071.48 1576.88 1051.11 1679.56 1080.23 1748.37C1109.34 1817.18 1176.88 1825.95 1231.03 1767.98Z" fill="#37474F"/>
<path d="M1157.95 1595.27C1178.79 1572.99 1204.71 1576.38 1215.9 1602.8C1221.09 1617.51 1222.23 1633.16 1219.2 1648.5C1216.18 1663.84 1209.09 1678.44 1198.5 1691.1C1177.66 1713.38 1151.64 1710.03 1140.45 1683.6C1135.26 1668.89 1134.13 1653.22 1137.17 1637.87C1140.21 1622.52 1147.33 1607.92 1157.95 1595.27Z" fill="#BBBBBB"/>
<path d="M1191.06 1629.3C1192.84 1634.33 1193.24 1639.69 1192.21 1644.94C1191.18 1650.19 1188.76 1655.19 1185.14 1659.53C1183.97 1661.03 1182.41 1662.27 1180.59 1663.15C1178.77 1664.03 1176.75 1664.52 1174.7 1664.59L1173.25 1664.39C1171.39 1663.83 1169.71 1662.89 1168.34 1661.66C1166.97 1660.42 1165.95 1658.92 1165.37 1657.27C1163.61 1652.23 1163.24 1646.86 1164.29 1641.61C1165.33 1636.35 1167.76 1631.36 1171.38 1627.01C1172.54 1625.49 1174.09 1624.24 1175.91 1623.36C1177.74 1622.47 1179.77 1621.99 1181.83 1621.96L1183.27 1622.15C1185.12 1622.72 1186.79 1623.66 1188.14 1624.9C1189.5 1626.15 1190.49 1627.65 1191.06 1629.3Z" fill="#37474F"/>
<path d="M1509.85 1671.07C1511.62 1676.1 1512.01 1681.45 1510.98 1686.7C1509.96 1691.95 1507.54 1696.95 1503.94 1701.29C1502.28 1703.18 1500.1 1704.67 1497.61 1705.62C1495.67 1706.26 1493.59 1706.44 1491.58 1706.12L1174.88 1665.01L1173.44 1664.82C1171.57 1664.26 1169.89 1663.32 1168.52 1662.09C1167.15 1660.85 1166.13 1659.35 1165.55 1657.7C1163.79 1652.66 1163.42 1647.29 1164.47 1642.04C1165.51 1636.78 1167.94 1631.78 1171.56 1627.44C1172.72 1625.92 1174.27 1624.67 1176.09 1623.79C1177.92 1622.9 1179.95 1622.42 1182.01 1622.38L1183.45 1622.58L1500.05 1663.72C1502.34 1663.98 1504.48 1664.81 1506.22 1666.11C1507.96 1667.41 1509.22 1669.13 1509.85 1671.07Z" fill="#FAFAFA"/>
<path d="M1761.69 1572.01C1720.96 1525.85 1626.71 1508.37 1563.09 1549.84C1553.07 1556.38 1544.03 1564.01 1536.18 1572.53C1481.99 1630.41 1461.65 1733.19 1490.77 1802C1495.51 1813.67 1502.28 1824.6 1510.84 1834.41C1551.61 1880.66 1645.75 1897.89 1709.34 1856.33C1719.31 1849.78 1728.32 1842.17 1736.14 1833.67C1790.43 1775.75 1810.63 1672.93 1781.51 1604.12C1776.83 1592.56 1770.15 1581.73 1761.69 1572.01Z" fill="#BBBBBB"/>
<path d="M1736.11 1833.59C1790.39 1775.67 1810.6 1672.84 1781.48 1604.03C1752.36 1535.22 1684.96 1526.51 1630.67 1584.43C1576.38 1642.35 1556.14 1745.09 1585.26 1813.9C1614.38 1882.71 1681.92 1891.47 1736.11 1833.59Z" fill="#37474F"/>
<path d="M1662.95 1660.7C1683.79 1638.42 1709.81 1641.78 1721.03 1668.29C1726.21 1683 1727.32 1698.65 1724.27 1713.98C1721.23 1729.31 1714.11 1743.89 1703.5 1756.54C1682.66 1778.82 1656.74 1775.43 1645.55 1749C1640.36 1734.3 1639.22 1718.64 1642.25 1703.3C1645.27 1687.96 1652.36 1673.37 1662.95 1660.7Z" fill="#BBBBBB"/>
<path d="M1696.19 1694.79C1697.96 1699.82 1698.35 1705.18 1697.32 1710.43C1696.29 1715.68 1693.88 1720.67 1690.28 1725.02C1689.1 1726.54 1687.53 1727.8 1685.69 1728.69C1683.86 1729.58 1681.81 1730.06 1679.73 1730.11L1678.29 1729.92C1676.44 1729.33 1674.78 1728.38 1673.43 1727.14C1672.08 1725.91 1671.08 1724.41 1670.5 1722.76C1668.73 1717.72 1668.35 1712.35 1669.4 1707.1C1670.44 1701.84 1672.88 1696.84 1676.52 1692.5C1677.65 1690.99 1679.19 1689.74 1681 1688.86C1682.8 1687.99 1684.82 1687.51 1686.86 1687.48L1688.3 1687.67C1690.18 1688.22 1691.88 1689.14 1693.25 1690.38C1694.62 1691.62 1695.63 1693.13 1696.19 1694.79Z" fill="#37474F"/>
<path d="M1744.18 1701.03C1745.96 1706.06 1746.35 1711.42 1745.32 1716.67C1744.3 1721.92 1741.88 1726.91 1738.27 1731.25C1736.64 1733.17 1734.45 1734.67 1731.94 1735.59C1730 1736.21 1727.92 1736.38 1725.91 1736.08L1679.73 1730.11L1678.29 1729.92C1676.44 1729.33 1674.78 1728.38 1673.43 1727.14C1672.08 1725.91 1671.08 1724.41 1670.5 1722.76C1668.73 1717.72 1668.35 1712.35 1669.4 1707.09C1670.44 1701.84 1672.88 1696.84 1676.52 1692.5C1677.65 1690.99 1679.19 1689.74 1681 1688.86C1682.8 1687.99 1684.82 1687.51 1686.86 1687.48L1688.3 1687.67L1734.48 1693.64C1736.75 1693.93 1738.87 1694.78 1740.58 1696.09C1742.3 1697.39 1743.55 1699.1 1744.18 1701.03Z" fill="#FAFAFA"/>
<path d="M1744.14 1700.94C1745.92 1705.97 1746.31 1711.33 1745.29 1716.58C1744.26 1721.83 1741.84 1726.83 1738.23 1731.17C1737.07 1732.69 1735.52 1733.94 1733.7 1734.82C1731.87 1735.71 1729.84 1736.19 1727.78 1736.23L1726.34 1736.03C1724.47 1735.48 1722.78 1734.55 1721.41 1733.31C1720.04 1732.08 1719.03 1730.57 1718.45 1728.91C1716.69 1723.87 1716.32 1718.5 1717.36 1713.25C1718.41 1707.99 1720.84 1702.99 1724.47 1698.65C1725.61 1697.15 1727.16 1695.91 1728.98 1695.04C1730.79 1694.18 1732.81 1693.72 1734.85 1693.71L1736.39 1693.87C1738.24 1694.43 1739.9 1695.36 1741.25 1696.58C1742.59 1697.81 1743.59 1699.3 1744.14 1700.94Z" fill="#E0E0E0"/>
<path d="M1387.15 1728.56C1328.46 1711.77 1281.05 1723.61 1267.04 1651.03C1264.34 1618.16 1273.68 1613.53 1309.71 1591.99C1325.6 1582.55 1347.6 1572.96 1365.46 1581.74C1367.5 1582.87 1369.68 1583.87 1371.95 1584.72C1376.7 1585.74 1381.8 1585.75 1386.74 1584.73C1396.17 1582.84 1405.92 1583.54 1414.29 1586.72C1420.22 1589.57 1423.81 1594.73 1429.67 1597.66C1435.05 1599.76 1440.67 1601.51 1446.48 1602.88C1450.83 1604.37 1454.67 1606.58 1457.75 1609.37C1460.82 1612.15 1463.06 1615.45 1464.32 1619.05C1465.29 1623.28 1465.05 1627.68 1463.61 1631.96C1462.17 1636.24 1459.57 1640.29 1455.98 1643.82L1428 1638.85C1415.98 1635.94 1401.05 1660.18 1413.35 1668.11C1432.53 1680.73 1387.15 1728.56 1387.15 1728.56Z" fill="#FEBD99"/>
</g>
<defs>
<filter id="filter0_d_53_2" x="47.4292" y="0" width="1868.01" height="3470.13" filterUnits="userSpaceOnUse" color-interpolation-filters="sRGB">
<feFlood flood-opacity="0" result="BackgroundImageFix"/>
<feColorMatrix in="SourceAlpha" type="matrix" values="0 0 0 0 0 0 0 0 0 0 0 0 0 0 0 0 0 0 127 0" result="hardAlpha"/>
<feOffset dy="4"/>
<feGaussianBlur stdDeviation="2"/>
<feComposite in2="hardAlpha" operator="out"/>
<feColorMatrix type="matrix" values="0 0 0 0 0 0 0 0 0 0 0 0 0 0 0 0 0 0 0.25 0"/>
<feBlend mode="normal" in2="BackgroundImageFix" result="effect1_dropShadow_53_2"/>
<feBlend mode="normal" in="SourceGraphic" in2="effect1_dropShadow_53_2" result="shape"/>
</filter>
</defs>
</svg>
