<svg width="197" height="121" viewBox="0 0 197 121" fill="none" xmlns="http://www.w3.org/2000/svg">
<path d="M39.6594 32.3258C79.9101 13.4386 118.867 2.26081 156.529 -1.20746C194.191 -4.67573 229.239 4.50786 261.674 26.3433C294.109 48.1787 291.352 67.4876 253.404 84.2698C215.456 101.052 178.414 112.408 142.279 118.337C106.143 124.266 69.9434 116.135 33.6794 93.9437C-2.58459 71.7523 -0.591252 51.2131 39.6594 32.3258Z" fill="#BA68C8"/>
<path d="M52.1253 -10.398C98.7852 -18.191 142.54 -19.7275 183.389 -15.0075C224.238 -10.2874 259.797 4.60065 290.065 29.6566C320.333 54.7126 313.573 70.4811 269.785 76.9619C225.997 83.4428 184.249 85.5188 144.541 83.19C104.833 80.8613 67.8387 66.6293 33.5574 40.4942C-0.723998 14.3592 5.4653 -2.60491 52.1253 -10.398Z" fill="#7E238D"/>
</svg>
