<svg width="375" height="125" viewBox="0 0 375 125" fill="none" xmlns="http://www.w3.org/2000/svg">
<path d="M-30.2597 -32.4428C56.5439 -58.5347 138.45 -72.6682 215.459 -74.8436C292.468 -77.019 360.451 -59.6123 419.409 -22.6236C478.367 14.3651 467.079 44.3571 385.545 67.3523C304.01 90.3475 225.914 104.925 151.256 111.085C76.5972 117.245 5.97911 101.387 -60.5986 63.5101C-127.176 25.6333 -117.063 -6.35103 -30.2597 -32.4428Z" fill="#9221A6"/>
<path d="M269.736 60.3013L251.552 55.7442L231.573 89.3871L249.756 93.9442L269.736 60.3013Z" fill="#DD76EF"/>
<path d="M247.852 58.879L239.305 56.7078L223.96 82.9004L232.507 85.0716L247.852 58.879Z" fill="#DD76EF"/>
<path d="M247.866 59.0722L243.698 57.993L228.747 84.0058L232.915 85.0851L247.866 59.0722Z" fill="black"/>
<path d="M310.496 110.537L328.68 115.094L348.659 81.4516L330.476 76.8945L310.496 110.537Z" fill="#DD76EF"/>
<path d="M332.38 111.96L340.927 114.131L356.272 87.9382L347.725 85.767L332.38 111.96Z" fill="#DD76EF"/>
<path d="M351.493 86.8463L347.325 85.767L332.38 111.77L336.548 112.849L351.493 86.8463Z" fill="black"/>
<path d="M323.075 85.8075L265.297 71.2731L257.157 85.0311L314.935 99.5655L323.075 85.8075Z" fill="black"/>
<path d="M293.545 37.6602H286.241V47.0127H293.545V37.6602Z" fill="#DBDBDB"/>
<path d="M295.854 43.9876H283.942V54.6698H295.854V43.9876Z" fill="black"/>
<path d="M304.065 67.9007V116.802H275.741V67.9007C275.741 58.2268 281.205 50.7581 289.893 50.7581C298.581 50.7581 304.065 58.2268 304.065 67.9007Z" fill="#DD76EF"/>
<path d="M304.065 76.5218H275.741V84.8105H304.065V76.5218Z" fill="black"/>
<path d="M304.065 88.6667H275.741V92.8111H304.065V88.6667Z" fill="black"/>
</svg>
