<svg width="1063" height="1625" viewBox="0 0 1063 1625" fill="none" xmlns="http://www.w3.org/2000/svg">
<g opacity="0.3">
<path opacity="0.3" d="M286.279 993.933C286.065 993.99 285.844 993.99 285.631 993.933L259.124 985.108C258.648 984.959 258.203 984.697 257.816 984.338C257.429 983.979 257.109 983.53 256.875 983.02C256.641 982.509 256.498 981.948 256.455 981.37C256.412 980.792 256.471 980.21 256.626 979.66C256.759 979.102 256.985 978.582 257.29 978.129C257.596 977.675 257.975 977.298 258.405 977.019C258.836 976.74 259.31 976.565 259.798 976.504C260.287 976.443 260.781 976.497 261.252 976.663L287.759 985.489C288.66 985.757 289.441 986.42 289.942 987.342C290.443 988.265 290.626 989.377 290.455 990.453C290.284 991.529 289.772 992.488 289.021 993.135C288.271 993.781 287.34 994.067 286.417 993.933H286.279Z" fill="black"/>
<path opacity="0.3" d="M259.124 1018.12C258.285 1017.99 257.509 1017.52 256.928 1016.8C256.346 1016.07 255.993 1015.13 255.928 1014.14C255.863 1013.14 256.09 1012.15 256.571 1011.33C257.051 1010.51 257.757 1009.91 258.569 1009.62L285.215 1001.72C285.691 1001.54 286.195 1001.48 286.693 1001.54C287.191 1001.6 287.673 1001.78 288.108 1002.08C288.544 1002.37 288.922 1002.76 289.221 1003.24C289.519 1003.71 289.73 1004.25 289.841 1004.83C289.987 1005.39 290.035 1005.98 289.98 1006.57C289.925 1007.15 289.769 1007.71 289.522 1008.22C289.275 1008.73 288.942 1009.18 288.543 1009.53C288.145 1009.89 287.689 1010.14 287.204 1010.28L260.512 1018.23C260.047 1018.27 259.581 1018.23 259.124 1018.12Z" fill="black"/>
<path opacity="0.3" d="M272.539 1047.11C271.665 1046.99 270.849 1046.53 270.226 1045.8C269.548 1044.98 269.168 1043.89 269.168 1042.75C269.168 1041.61 269.548 1040.51 270.226 1039.7L289.979 1017.14C290.315 1016.74 290.715 1016.42 291.156 1016.21C291.596 1015.99 292.069 1015.88 292.547 1015.88C293.024 1015.88 293.497 1015.99 293.938 1016.21C294.379 1016.42 294.779 1016.74 295.114 1017.14C295.456 1017.54 295.726 1018.02 295.911 1018.54C296.096 1019.06 296.191 1019.63 296.191 1020.19C296.191 1020.76 296.096 1021.32 295.911 1021.84C295.726 1022.37 295.456 1022.84 295.114 1023.24L275.361 1045.85C274.99 1046.28 274.548 1046.61 274.062 1046.83C273.576 1047.04 273.058 1047.14 272.539 1047.11Z" fill="black"/>
<path opacity="0.3" d="M296.41 1064.27H295.762C295.289 1064.11 294.847 1063.84 294.462 1063.48C294.077 1063.12 293.757 1062.68 293.52 1062.17C293.283 1061.66 293.134 1061.11 293.082 1060.53C293.031 1059.96 293.076 1059.37 293.218 1058.82L300.712 1027.66C300.834 1027.1 301.05 1026.58 301.345 1026.13C301.64 1025.67 302.01 1025.29 302.432 1025.01C302.854 1024.72 303.32 1024.54 303.803 1024.47C304.285 1024.4 304.775 1024.44 305.243 1024.6C305.711 1024.76 306.148 1025.02 306.528 1025.38C306.908 1025.73 307.224 1026.18 307.457 1026.68C307.69 1027.18 307.835 1027.74 307.884 1028.31C307.933 1028.88 307.885 1029.45 307.743 1030L300.249 1061.16C300.024 1062.13 299.515 1062.97 298.812 1063.54C298.109 1064.11 297.258 1064.37 296.41 1064.27Z" fill="black"/>
</g>
<path d="M999.742 610.095L936.748 661.816L798.371 690.278C798.371 690.278 697.245 474.493 681.772 440.577C666.299 406.661 648.225 384.907 606.258 384.969L614.193 557.121C615.515 562.638 699.14 709.211 754.288 789.08C773.773 817.229 785.763 824.376 816.225 812.402C893.943 781.745 988.148 690.905 995.731 668.211C1005.69 638.557 998.993 610.66 999.742 610.095Z" fill="#FEBD99"/>
<path d="M999.172 665.304C1002.36 619.714 1024.06 588.889 973.236 561.817C949.231 552.138 943.232 557.669 917.312 578.136C905.922 587.174 892.771 600.509 894.566 615.249C894.864 616.968 895.027 618.744 895.053 620.558C894.544 624.167 893.171 627.786 891.076 631.046C887.109 637.287 885.009 644.372 885.144 651.06C885.687 655.935 888.602 659.698 889.223 664.549C889.356 668.859 889.154 673.257 888.62 677.699C888.567 681.14 889.193 684.385 890.459 687.223C891.726 690.061 893.603 692.429 895.97 694.174C898.888 695.86 902.269 696.728 905.876 696.717C909.483 696.706 913.23 695.816 916.856 694.109L920.661 673.087C921.717 663.882 943.977 659.014 946.624 669.612C950.951 686.192 999.172 665.304 999.172 665.304Z" fill="#FEBD99"/>
<path d="M649.697 793.338C658.672 750.571 661.262 643.845 661.262 643.845L398.598 653.161L412.892 720.553C415.264 735.78 416.534 751.217 416.686 766.697C416.686 766.697 442.175 822.321 517.717 832.073C564.174 837.264 610.742 823.597 649.697 793.338Z" fill="#FEBD99"/>
<path d="M661.262 643.845C661.586 647.277 659.782 679.584 659.782 679.584C626.151 712.871 518.411 729.705 405.352 685.413L381.389 576.453C381.389 576.453 462.714 534.394 407.804 393.291L466.831 387.843L571.703 384.738H606.352C634.655 417.072 658.573 454.335 677.268 495.223C690.869 525.514 708.401 569.697 661.262 643.845Z" fill="#968D41"/>
<path d="M486.933 648.638C439.655 634.418 427.766 599.606 424.39 574C424.39 574 415.461 648.638 483.093 666.071C554.426 684.377 583.755 617.856 583.755 617.856C583.755 617.856 544.064 665.799 486.933 648.638Z" fill="#716714"/>
<path d="M486.933 648.638C439.655 634.418 427.766 599.606 424.39 574C424.39 574 415.461 648.638 483.093 666.071C554.426 684.377 583.755 617.856 583.755 617.856C583.755 617.856 544.064 665.799 486.933 648.638Z" fill="#716714"/>
<path d="M486.933 648.638C439.655 634.418 427.766 599.606 424.39 574C424.39 574 415.461 648.638 483.093 666.071C554.426 684.377 583.755 617.856 583.755 617.856C583.755 617.856 544.064 665.799 486.933 648.638Z" fill="#716714"/>
<path d="M486.933 648.638C439.655 634.418 427.766 599.606 424.39 574C424.39 574 415.461 648.638 483.093 666.071C554.426 684.377 583.755 617.856 583.755 617.856C583.755 617.856 544.064 665.799 486.933 648.638Z" fill="#716714"/>
<path d="M109.935 1475.43C96.0575 1487.36 64.0918 1490.25 35.9195 1474.66C7.74717 1459.08 -4.04913 1414.74 1.22451 1380.47C7.60839 1338.68 25.1409 1315.8 29.6281 1290.69C34.1154 1265.57 29.6281 1230.76 36.3358 1208.31C39.1333 1199.69 43.4732 1191.89 49.0607 1185.42C54.6482 1178.95 61.3525 1173.97 68.7178 1170.83C73.4184 1168.69 78.4727 1167.85 83.4926 1168.37C88.5126 1168.89 93.3647 1170.75 97.6766 1173.83L106.05 1179.6L109.935 1475.43Z" fill="#263238"/>
<path d="M143.058 1316.07L121.13 1393.49C121.13 1393.49 135.008 1448.79 127.191 1463.44C115.626 1485.23 95.3636 1489.1 61.1775 1476.79C22.0415 1462.79 12.8358 1421.11 14.9175 1388.75C17.6468 1342.61 53.8684 1307.9 49.705 1263.45C47.7158 1241.65 50.2139 1217.25 60.3448 1198.56C71.6785 1177.59 90.275 1173.66 109.612 1180.53C126.127 1186.41 140.652 1198.67 154.669 1210.16C158.703 1213.16 162.349 1216.83 165.494 1221.06C168.013 1224.98 169.896 1229.41 171.045 1234.14C173.581 1243.66 174.339 1253.71 173.265 1263.61C172.248 1272.87 167.252 1278.26 162.579 1285.4L143.058 1316.07Z" fill="#37474F"/>
<path d="M237.567 1279.41C236.179 1278.75 169.195 1228.31 161.978 1224.55C154.761 1220.79 137.044 1215.34 119.835 1262.08C107.576 1295.43 125.201 1307.74 125.201 1307.74L203.843 1362.76L237.567 1279.41Z" fill="#FEBD99"/>
<path d="M121.13 1393.49C106.947 1385.18 91.2607 1381.07 75.4255 1381.5C74.2456 1381.64 73.0548 1381.44 71.9583 1380.91C70.8618 1380.37 69.8934 1379.53 69.1388 1378.46C68.3842 1377.38 67.8666 1376.1 67.6318 1374.73C67.397 1373.36 67.4522 1371.95 67.7926 1370.61C68.2356 1369.01 69.0694 1367.61 70.189 1366.57C71.3086 1365.53 72.6638 1364.91 74.084 1364.78C84.6775 1363.85 110.398 1363.47 127.468 1380.03C132.002 1390.82 121.13 1393.49 121.13 1393.49Z" fill="#BEB24F"/>
<path d="M129.133 1358.13C115.351 1348.94 99.8636 1343.87 84.03 1343.37C82.8357 1343.43 81.6474 1343.14 80.5705 1342.53C79.4936 1341.92 78.5615 1341 77.8568 1339.86C77.1521 1338.73 76.6966 1337.4 76.5307 1336.01C76.3648 1334.61 76.4937 1333.19 76.9059 1331.87C77.4026 1330.31 78.2842 1328.95 79.4379 1327.98C80.5917 1327.01 81.965 1326.47 83.3823 1326.42C94.0221 1326.1 119.743 1327.3 136.072 1344.89C140.143 1356.06 129.133 1358.13 129.133 1358.13Z" fill="#BEB24F"/>
<path opacity="0.3" d="M121.13 1393.49C106.947 1385.18 91.2607 1381.07 75.4255 1381.5C74.2456 1381.64 73.0548 1381.44 71.9583 1380.91C70.8618 1380.37 69.8934 1379.53 69.1388 1378.46C68.3842 1377.38 67.8666 1376.1 67.6318 1374.73C67.397 1373.36 67.4522 1371.95 67.7926 1370.61C68.2356 1369.01 69.0694 1367.61 70.189 1366.57C71.3086 1365.53 72.6638 1364.91 74.084 1364.78C84.6775 1363.85 110.398 1363.47 127.468 1380.03C132.002 1390.82 121.13 1393.49 121.13 1393.49Z" fill="black"/>
<path opacity="0.3" d="M129.133 1358.13C115.351 1348.94 99.8636 1343.87 84.03 1343.37C82.8357 1343.43 81.6474 1343.14 80.5705 1342.53C79.4936 1341.92 78.5615 1341 77.8568 1339.86C77.1521 1338.73 76.6966 1337.4 76.5307 1336.01C76.3648 1334.61 76.4937 1333.19 76.9059 1331.87C77.4026 1330.31 78.2842 1328.95 79.4379 1327.98C80.5917 1327.01 81.965 1326.47 83.3823 1326.42C94.0221 1326.1 119.743 1327.3 136.072 1344.89C140.143 1356.06 129.133 1358.13 129.133 1358.13Z" fill="black"/>
<path d="M811.839 1483.82L898.807 1443.18C897.327 1416.75 891.822 1381.56 897.559 1312.42L798.886 1290.25V1406.67L811.839 1483.82Z" fill="#FEBD99"/>
<path d="M1060.07 1573.76C1062.4 1582.03 1061.97 1591.03 1058.87 1598.93C1055.91 1606.29 1023.29 1627.92 979.3 1624.43C946.753 1621.71 915.415 1608.79 888.538 1587C871.745 1573.93 854.305 1571.48 832.517 1570C810.728 1568.53 782.14 1555.73 777.329 1543.75C772.518 1531.76 778.069 1511.06 778.069 1511.06L1060.07 1573.76Z" fill="#263238"/>
<path d="M882.57 1412.12L886.039 1411.25C887.925 1410.66 889.892 1410.53 891.822 1410.87C893.971 1411.65 895.872 1413.16 897.281 1415.23C901.586 1421.7 905.35 1428.66 908.522 1435.98C917.774 1453.69 937.064 1468.34 958.205 1481.75C972.592 1490.85 986.655 1498.09 1001.5 1505.77C1016.35 1513.45 1036.71 1518.68 1048.55 1528.06C1065.85 1541.78 1068.07 1576.22 1048.55 1589.78C1031.57 1601.49 986.932 1614.24 940.117 1598.61C914.628 1590.11 886.317 1558.02 852.825 1555.02C831.545 1553.06 791.299 1546.03 777.56 1527.02C772.518 1518.58 779.271 1491.77 784.823 1468.67C790.883 1443.45 793.149 1398.99 800.227 1401.23C800.227 1401.23 798.284 1407.49 801.06 1410.87C803.835 1414.25 813.643 1420.95 816.465 1423.83C821.402 1429.57 825.401 1436.33 828.261 1443.77C829.423 1447.13 831.575 1449.88 834.321 1451.51C837.883 1453.09 840.566 1450.42 843.573 1448.73C847.535 1446.66 851.988 1446.3 856.156 1447.7C855.738 1442.72 854.996 1437.78 853.935 1432.93C853.44 1431.4 853.328 1429.74 853.611 1428.14C854.152 1426.61 855.114 1425.35 856.341 1424.54C864.251 1418.29 873.186 1414.06 882.57 1412.12Z" fill="#37474F"/>
<path d="M938.36 1468.13C936.824 1464.68 934.582 1461.73 931.835 1459.56C929.088 1457.4 925.924 1456.07 922.631 1455.71C912.917 1453.58 895.847 1462.03 885.207 1472.05C884.196 1473.02 883.402 1474.26 882.894 1475.67C882.386 1477.08 882.18 1478.62 882.294 1480.15C882.408 1481.68 882.839 1483.15 883.549 1484.43C884.258 1485.72 885.225 1486.78 886.363 1487.52C887.815 1488.5 889.493 1488.91 891.155 1488.69C892.817 1488.48 894.379 1487.65 895.615 1486.32C907.314 1473.95 922.645 1467.42 938.36 1468.13Z" fill="#BEB24F"/>
<path d="M968.383 1487.9C966.278 1484.43 963.503 1481.6 960.285 1479.64C957.068 1477.68 953.501 1476.64 949.878 1476.63C949.878 1476.63 924.574 1477.44 908.938 1494.66C907.971 1495.59 907.211 1496.79 906.724 1498.15C906.237 1499.51 906.037 1500.98 906.142 1502.45C906.247 1503.92 906.653 1505.34 907.325 1506.58C907.998 1507.82 908.916 1508.85 910.002 1509.59C911.384 1510.48 912.969 1510.85 914.536 1510.63C916.104 1510.42 917.575 1509.63 918.745 1508.39C925.192 1500.82 932.998 1495.05 941.589 1491.51C950.179 1487.96 959.335 1486.73 968.383 1487.9Z" fill="#BEB24F"/>
<path d="M1001.5 1505.77C999.094 1502.53 996.12 1499.94 992.783 1498.17C989.447 1496.4 985.826 1495.5 982.168 1495.53C982.168 1495.53 958.575 1496.57 942.94 1513.78C941.982 1514.72 941.231 1515.92 940.751 1517.28C940.27 1518.63 940.074 1520.11 940.178 1521.57C940.282 1523.03 940.684 1524.45 941.35 1525.69C942.016 1526.93 942.926 1527.97 944.003 1528.71C945.384 1529.61 946.97 1529.98 948.539 1529.77C950.108 1529.55 951.579 1528.76 952.747 1527.51C958.877 1519.67 966.476 1513.62 974.941 1509.85C983.406 1506.07 992.502 1504.68 1001.5 1505.77Z" fill="#BEB24F"/>
<path opacity="0.3" d="M938.36 1468.13C936.824 1464.68 934.582 1461.73 931.835 1459.56C929.088 1457.4 925.924 1456.07 922.631 1455.71C912.917 1453.58 895.847 1462.03 885.207 1472.05C884.196 1473.02 883.402 1474.26 882.894 1475.67C882.386 1477.08 882.18 1478.62 882.294 1480.15C882.408 1481.68 882.839 1483.15 883.549 1484.43C884.258 1485.72 885.225 1486.78 886.363 1487.52C887.815 1488.5 889.493 1488.91 891.155 1488.69C892.817 1488.48 894.379 1487.65 895.615 1486.32C907.314 1473.95 922.645 1467.42 938.36 1468.13Z" fill="black"/>
<path opacity="0.3" d="M968.383 1487.9C966.278 1484.43 963.503 1481.6 960.285 1479.64C957.068 1477.68 953.501 1476.64 949.878 1476.63C949.878 1476.63 924.574 1477.44 908.938 1494.66C907.971 1495.59 907.211 1496.79 906.724 1498.15C906.237 1499.51 906.037 1500.98 906.142 1502.45C906.247 1503.92 906.653 1505.34 907.325 1506.58C907.998 1507.82 908.916 1508.85 910.002 1509.59C911.384 1510.48 912.969 1510.85 914.536 1510.63C916.104 1510.42 917.575 1509.63 918.745 1508.39C925.192 1500.82 932.998 1495.05 941.589 1491.51C950.179 1487.96 959.335 1486.73 968.383 1487.9Z" fill="black"/>
<path opacity="0.3" d="M1001.5 1505.77C999.094 1502.53 996.12 1499.94 992.783 1498.17C989.447 1496.4 985.826 1495.5 982.168 1495.53C982.168 1495.53 958.575 1496.57 942.94 1513.78C941.982 1514.72 941.231 1515.92 940.751 1517.28C940.27 1518.63 940.074 1520.11 940.178 1521.57C940.282 1523.03 940.684 1524.45 941.35 1525.69C942.016 1526.93 942.926 1527.97 944.003 1528.71C945.384 1529.61 946.97 1529.98 948.539 1529.77C950.108 1529.55 951.579 1528.76 952.747 1527.51C958.877 1519.67 966.476 1513.62 974.941 1509.85C983.406 1506.07 992.502 1504.68 1001.5 1505.77Z" fill="black"/>
<path d="M871.282 899.41C805.269 881.922 647.153 842.969 647.153 842.969L649.697 793.283C592.474 828.205 472.198 818.344 416.686 766.697L407.896 819.379C386.856 849.05 368.644 881.35 353.587 915.7C340.865 945.283 319.678 991.427 340.773 1098.92C353.171 1162 369.732 1328.22 369.732 1328.22L207.822 1258C207.822 1258 193.944 1260.78 182.194 1296.46C175.301 1317.65 172.942 1337.97 179.973 1348.49C239.186 1403.51 335.129 1493.51 432.09 1543.96C496.854 1573.16 531.272 1509.04 534.464 1485.29C546.584 1394.31 560.647 1101.97 560.647 1101.97L776.866 1093.58C769.742 1141.85 798.886 1330.46 798.886 1330.46C798.886 1330.46 852.131 1357.7 896.263 1329.8C896.263 1329.8 925.777 1112.75 928.645 1040.35C931.744 959.774 935.26 916.299 871.282 899.41Z" fill="#BEB24F"/>
<path opacity="0.15" d="M776.866 1093.58C776.866 1080.56 784.221 1035.01 809.248 1010.82C809.248 1010.82 774.923 1018.07 759.241 1094.23L776.866 1093.58Z" fill="black"/>
<path opacity="0.15" d="M369.732 1328.11C369.732 1328.11 374.358 1399.92 385.969 1434.84C385.969 1434.84 356.779 1372.73 353.587 1321.09L369.732 1328.11Z" fill="black"/>
<path opacity="0.15" d="M647.107 842.969L649.697 793.338C592.474 828.205 472.198 818.344 416.686 766.697L407.896 819.379C408.313 819.924 443.933 862.963 536.545 868.902C629.158 874.84 647.107 842.969 647.107 842.969Z" fill="black"/>
<path opacity="0.15" d="M560.785 1101.86C560.007 1074.89 554.583 1048.39 544.842 1023.96C535.1 999.537 521.245 977.699 504.117 959.774C504.117 959.774 553.893 987.014 570.546 1073.26C570.546 1073.26 607.554 1052.93 626.891 992.026C626.891 992.026 620.97 1052.94 591.178 1087.53L681.015 1097.34L560.785 1101.86Z" fill="black"/>
<path d="M531.642 0C493.301 0 456.531 17.937 429.42 49.8651C402.31 81.7932 387.079 125.097 387.079 170.25C387.079 215.408 402.308 258.718 429.418 290.654C456.527 322.591 493.297 340.54 531.642 340.555C569.99 340.54 606.765 322.593 633.882 290.658C660.999 258.722 676.238 215.413 676.25 170.25C676.238 125.092 660.997 81.7883 633.879 49.8618C606.761 17.9353 569.986 -2.31062e-06 531.642 0Z" fill="#263238"/>
<path d="M380.834 103.73C386.062 103.448 391.301 103.795 396.47 104.765C398.216 104.881 399.864 105.754 401.096 107.217C401.795 108.471 402.209 109.915 402.299 111.412C403.436 120.872 402.692 130.514 400.124 139.578C398.043 145.843 391.705 149.112 387.681 153.688C372.045 171.503 370.796 201.14 376.948 225.711C383.101 250.281 395.452 272.182 403.455 295.881C411.458 319.58 415.714 348.291 404.38 372.153C399.754 381.36 391.983 388.497 392.954 399.393C394.064 412.741 403.964 425.543 408.22 437.529C412.865 451.819 414.454 467.236 412.846 482.421C411.553 501.242 405.53 519.184 395.545 533.959C387.931 544.391 378.109 552.265 367.075 556.781C356.042 561.298 344.19 562.295 332.724 559.673C327.889 558.68 323.314 556.386 319.355 552.972C312.554 546.543 309.871 536.029 306.17 526.713C294.235 496.585 269.162 474.684 261.483 442.705C253.434 408.872 267.22 373.243 284.151 344.314C292.061 330.803 300.897 317.51 304.783 301.765C310.01 280.463 305.43 257.745 304.228 235.626C303.01 213.962 305.061 192.215 310.288 171.394C314.127 156.358 319.956 139.033 329.948 128.246C343.958 113.325 361.961 104.652 380.834 103.73Z" fill="#263238"/>
<path d="M622.265 77.9065C638.132 89.0749 657.562 136.2 655.295 234.809C653.352 318.381 630.268 338.92 618.703 344.804C607.138 350.688 584.887 346.983 563.191 342.625V392.801C563.191 392.801 592.983 433.879 590.947 456.869C588.912 479.86 547.648 485.145 519.707 462.317C491.766 439.49 468.266 396.233 468.266 396.233L469.144 280.845C469.144 280.845 456.33 295.391 434.82 272.999C417.009 254.531 411.134 223.532 425.105 206.97C439.076 190.408 464.75 195.093 474.511 218.846C474.511 218.846 509.021 220.481 555.142 190.953C573.105 179.675 588.55 163.556 600.215 143.91C611.88 124.263 619.436 101.647 622.265 77.9065Z" fill="#FEBD99"/>
<path d="M576.144 213.453C576.152 215.518 575.643 217.541 574.681 219.268C573.719 220.995 572.347 222.35 570.735 223.164C569.123 223.978 567.343 224.215 565.618 223.845C563.893 223.476 562.298 222.516 561.033 221.086C559.767 219.655 558.888 217.818 558.504 215.802C558.12 213.787 558.248 211.683 558.873 209.754C559.498 207.824 560.592 206.153 562.018 204.951C563.444 203.749 565.139 203.068 566.892 202.993C569.283 202.99 571.582 204.078 573.306 206.028C575.031 207.978 576.048 210.639 576.144 213.453Z" fill="#263238"/>
<g style="mix-blend-mode:multiply" opacity="0.5">
<g style="mix-blend-mode:multiply" opacity="0.5">
<path d="M578.272 284.277L598.95 292.176C598.574 293.811 597.921 295.34 597.031 296.67C596.141 298.001 595.032 299.106 593.771 299.92C592.51 300.734 591.122 301.24 589.691 301.407C588.26 301.574 586.814 301.399 585.442 300.893C582.657 299.749 580.355 297.381 579.018 294.284C577.682 291.187 577.414 287.601 578.272 284.277Z" fill="#F28F8F"/>
</g>
</g>
<path d="M649.42 181.528L631.424 166.654C632.187 165.23 633.187 164.003 634.364 163.047C635.542 162.092 636.872 161.428 638.274 161.097C639.675 160.766 641.12 160.774 642.519 161.121C643.918 161.467 645.243 162.145 646.413 163.113C648.831 165.136 650.493 168.18 651.053 171.61C651.613 175.04 651.028 178.593 649.42 181.528Z" fill="#263238"/>
<path d="M645.164 206.152C645.172 208.218 644.663 210.24 643.701 211.967C642.739 213.694 641.367 215.049 639.755 215.863C638.143 216.677 636.363 216.915 634.638 216.545C632.912 216.175 631.318 215.215 630.053 213.785C628.787 212.355 627.908 210.517 627.524 208.502C627.14 206.487 627.269 204.383 627.893 202.453C628.518 200.523 629.612 198.853 631.038 197.651C632.464 196.448 634.159 195.767 635.912 195.692C638.303 195.69 640.602 196.778 642.326 198.728C644.051 200.678 645.068 203.339 645.164 206.152Z" fill="#263238"/>
<g style="mix-blend-mode:multiply" opacity="0.5">
<g style="mix-blend-mode:multiply" opacity="0.5">
<path d="M603.067 199.942L604.27 263.248L632.581 253.06L603.067 199.942Z" fill="#F28F8F"/>
</g>
</g>
<g style="mix-blend-mode:multiply" opacity="0.5">
<g style="mix-blend-mode:multiply" opacity="0.5">
<path d="M563.237 342.625C540.431 338.975 493.523 322.903 486.26 301.002C489.167 312.069 494.882 321.823 502.637 328.95C516.515 343.17 563.145 359.35 563.145 359.35L563.237 342.625Z" fill="#F28F8F"/>
</g>
</g>
<path d="M407.896 393.346C363.116 397.05 344.612 403.806 319.678 468.964C297.288 527.53 243.581 679.039 230.165 712.871C216.75 746.703 214.205 760.214 225.539 795.572C234.791 824.392 310.334 989.956 318.614 1014.09C326.895 1038.23 330.549 1062.63 344.659 1090.74C358.768 1118.86 381.065 1146.31 398.69 1152.8C424.827 1162.44 458.828 1149.04 459.846 1130.46C460.864 1111.88 421.497 1080.88 410.764 1039.64C417.875 1045.14 425.365 1049.94 433.154 1053.97C443.794 1059.09 455.59 1057.95 459.106 1050.86C462.622 1043.78 452.028 1039.42 442.591 1028.42C436.947 1021.83 426.955 1007.01 414.188 993.933C405.583 985.108 391.381 982.492 385.044 972.795C381.574 967.619 366.031 922.782 354.373 882.794C339.894 833.326 320.881 767.405 320.881 767.405L398.69 576.725C398.69 576.725 459.754 505.193 407.896 393.346Z" fill="#FEBD99"/>
<path d="M318.522 1014.09C318.522 1014.09 336.424 971.433 384.951 972.795L372.137 939.236C372.137 939.236 324.767 943.158 304.829 980.858L318.522 1014.09Z" fill="#37474F"/>
<path d="M313.294 977.862L323.842 995.241C324.594 996.506 325.557 997.579 326.672 998.395C327.786 999.21 329.029 999.751 330.326 999.986C331.623 1000.22 332.947 1000.14 334.217 999.757C335.488 999.373 336.68 998.689 337.72 997.747L356.224 981.403C358.365 979.455 359.8 976.623 360.238 973.479C360.676 970.334 360.084 967.111 358.583 964.46L348.915 947.68C348.196 946.372 347.257 945.253 346.155 944.392C345.053 943.531 343.812 942.947 342.51 942.676C341.207 942.405 339.872 942.453 338.586 942.817C337.3 943.181 336.092 943.854 335.037 944.792L315.376 961.136C313.223 963.035 311.795 965.859 311.405 968.993C311.015 972.127 311.694 975.316 313.294 977.862Z" fill="#263238"/>
<path d="M309.825 977.426L320.372 994.805C321.126 996.068 322.087 997.14 323.2 997.957C324.313 998.773 325.554 999.317 326.85 999.556C328.145 999.795 329.468 999.724 330.739 999.348C332.011 998.971 333.205 998.297 334.25 997.365L352.754 981.021C354.903 979.082 356.347 976.253 356.793 973.108C357.24 969.963 356.656 966.736 355.16 964.078L345.491 947.298C344.76 946.009 343.814 944.908 342.711 944.061C341.609 943.214 340.372 942.638 339.075 942.368C337.779 942.098 336.45 942.14 335.167 942.491C333.885 942.842 332.676 943.495 331.613 944.411L311.999 961.027C309.89 962.885 308.482 965.641 308.076 968.705C307.67 971.769 308.298 974.899 309.825 977.426Z" fill="#455A64"/>
<path d="M353.217 971.706C353.116 972.778 352.831 973.814 352.377 974.751C351.924 975.688 351.312 976.506 350.58 977.154L332.076 993.498C330.748 994.654 329.084 995.144 327.45 994.86C326.662 994.72 325.906 994.392 325.23 993.896C324.554 993.399 323.971 992.744 323.518 991.972L312.971 974.538C312.069 973.074 311.658 971.271 311.814 969.472C311.889 968.398 312.16 967.356 312.607 966.416C313.054 965.476 313.667 964.66 314.405 964.024L334.019 947.68C334.675 947.106 335.425 946.699 336.221 946.483C337.017 946.268 337.842 946.248 338.645 946.427C339.441 946.579 340.201 946.924 340.878 947.439C341.555 947.955 342.133 948.631 342.577 949.423L352.245 966.203C353.153 967.806 353.546 969.737 353.356 971.651L353.217 971.706Z" fill="#BEB24F"/>
</svg>
