<svg width="4346" height="6450" viewBox="0 0 4346 6450" fill="none" xmlns="http://www.w3.org/2000/svg">
<path d="M2410.4 5662.21L2348.68 6046.79C2348.68 6046.79 2294.67 6158.44 2348.68 6208.07C2374.02 6231.35 2392.57 6279.22 2405.12 6323.48C2416.06 6363.33 2434.36 6396.81 2457.54 6419.36C2480.72 6441.91 2507.66 6452.44 2534.69 6449.52C2561.03 6446.01 2583.21 6429.27 2588.6 6385.76C2590.1 6372.11 2589.81 6358.11 2587.75 6344.65C2585.69 6331.19 2581.91 6318.57 2576.66 6307.58C2519.75 6183.92 2506.84 6102.62 2506.84 6102.62L2529.99 5668.42L2410.4 5662.21Z" fill="#FEBD99"/>
<path d="M476.078 4985.87L317.792 5243.25C317.792 5243.25 289.77 5338.57 238.553 5336.42C214.519 5335.42 181.783 5352.5 153.804 5370.9C128.786 5387.69 103.243 5396.59 80.644 5396.39C58.0455 5396.2 39.4871 5386.91 27.4895 5369.81C16.1311 5352.75 13.3324 5330.43 32.0274 5302.22C37.9926 5293.48 45.0163 5285.56 52.6515 5278.95C60.2868 5272.35 68.3663 5267.21 76.3753 5263.87C165.413 5224.89 211.772 5185.28 211.772 5185.28L413.608 4921.23L476.078 4985.87Z" fill="#FEBD99"/>
<path d="M2049.22 2689.45C2049.22 2689.45 2110.9 3587.57 2207.43 4152.22C2253.69 4686.86 2391.54 5920.71 2391.54 5920.71H2502.26C2502.26 5920.71 2696.24 4977.11 2518.76 4119.95C2679.74 3190.69 2580.44 2634.16 2580.44 2634.16L2049.22 2689.45Z" fill="#3D3F45"/>
<path d="M3938.92 2737.91C3938.92 2737.91 3776.26 2124.93 3969.45 1673.76C4050.55 1484.43 4077.45 1271.84 4040 1066.34C4022.09 968.77 3996.16 873.232 3962.53 780.923" stroke="#535461" stroke-width="2" stroke-miterlimit="10"/>
<path d="M4082.46 496.167C4082.46 571.326 3959.89 788.9 3959.89 788.9C3959.89 788.9 3837.32 571.034 3837.32 496.167C3836.94 478.041 3839.83 460.013 3845.82 443.143C3851.81 426.274 3860.77 410.903 3872.19 397.934C3883.6 384.966 3897.24 374.66 3912.3 367.625C3927.35 360.589 3943.52 356.965 3959.86 356.965C3976.19 356.965 3992.36 360.589 4007.42 367.625C4022.47 374.66 4036.11 384.966 4047.53 397.934C4058.94 410.903 4067.91 426.274 4073.9 443.143C4079.88 460.013 4082.77 478.041 4082.39 496.167H4082.46Z" fill="#6C63FF"/>
<path d="M4285.27 912.286C4248.48 975.37 4038.94 1084.27 4038.94 1084.27C4038.94 1084.27 4042.77 827.467 4079.56 764.383C4097.61 735.085 4125.25 714.775 4156.6 707.784C4187.95 700.794 4220.52 707.677 4247.36 726.965C4274.2 746.253 4293.18 776.419 4300.27 811.027C4307.35 845.636 4301.97 881.946 4285.27 912.213V912.286Z" fill="#6C63FF"/>
<path d="M4276.37 1623.41C4215.91 1657.22 3985.54 1633.87 3985.54 1633.87C3985.54 1633.87 4105.6 1414.32 4166.06 1380.51C4180.47 1372.04 4196.25 1366.85 4212.49 1365.24C4228.73 1363.62 4245.09 1365.62 4260.62 1371.11C4276.16 1376.6 4290.55 1385.47 4302.95 1397.21C4315.36 1408.95 4325.53 1423.32 4332.87 1439.47C4340.21 1455.63 4344.57 1473.25 4345.7 1491.3C4346.84 1509.35 4344.71 1527.47 4339.46 1544.6C4334.2 1561.72 4325.92 1577.52 4315.1 1591.05C4304.28 1604.58 4291.13 1615.58 4276.44 1623.41H4276.37Z" fill="#6C63FF"/>
<path d="M4160.53 2159.77C4106.13 2204.41 3875.43 2224.61 3875.43 2224.61C3875.43 2224.61 3960.35 1985.74 4014.75 1941.02C4027.68 1930.23 4042.4 1922.38 4058.08 1917.94C4073.75 1913.49 4090.07 1912.53 4106.07 1915.12C4122.08 1917.7 4137.48 1923.78 4151.36 1933C4165.24 1942.22 4177.34 1954.4 4186.96 1968.84C4196.58 1983.28 4203.54 1999.69 4207.42 2017.12C4211.3 2034.55 4212.03 2052.67 4209.57 2070.42C4207.11 2088.16 4201.51 2105.2 4193.1 2120.53C4184.68 2135.87 4173.61 2149.2 4160.53 2159.77Z" fill="#6C63FF"/>
<path d="M3781.6 1098.83C3830.13 1151.16 4056.35 1205.39 4056.35 1205.39C4056.35 1205.39 4000.97 956.051 3952.44 903.652C3928.96 879.516 3897.91 866.53 3865.92 867.467C3833.93 868.404 3803.54 883.191 3781.24 908.668C3758.94 934.145 3746.5 968.291 3746.58 1003.81C3746.66 1039.33 3759.26 1073.41 3781.67 1098.76L3781.6 1098.83Z" fill="#6C63FF"/>
<path d="M3653.3 1727.99C3713.76 1761.8 3944.13 1738.45 3944.13 1738.45C3944.13 1738.45 3824.07 1518.9 3763.61 1485.09C3749.2 1476.62 3733.42 1471.43 3717.18 1469.81C3700.94 1468.2 3684.58 1470.2 3669.05 1475.69C3653.51 1481.18 3639.12 1490.05 3626.72 1501.79C3614.31 1513.53 3604.14 1527.9 3596.8 1544.05C3589.46 1560.21 3585.1 1577.83 3583.96 1595.88C3582.83 1613.93 3584.96 1632.05 3590.21 1649.18C3595.47 1666.3 3603.75 1682.1 3614.57 1695.63C3625.39 1709.16 3638.54 1720.16 3653.23 1727.99H3653.3Z" fill="#6C63FF"/>
<path d="M3604.18 2358.53C3658.57 2403.18 3889.28 2423.37 3889.28 2423.37C3889.28 2423.37 3804.35 2184.43 3749.89 2139.79C3736.96 2129 3722.24 2121.15 3706.56 2116.7C3690.89 2112.26 3674.57 2111.3 3658.56 2113.89C3642.55 2116.47 3627.16 2122.55 3613.28 2131.77C3599.4 2140.99 3587.3 2153.17 3577.67 2167.61C3568.05 2182.05 3561.1 2198.45 3557.22 2215.89C3553.34 2233.32 3552.61 2251.43 3555.07 2269.18C3557.53 2286.93 3563.12 2303.97 3571.54 2319.3C3579.96 2334.64 3591.03 2347.97 3604.11 2358.53H3604.18Z" fill="#6C63FF"/>
<path d="M4082.46 496.167C4082.46 571.326 3959.89 788.9 3959.89 788.9C3959.89 788.9 3837.32 571.034 3837.32 496.167C3836.94 478.041 3839.83 460.013 3845.82 443.143C3851.81 426.274 3860.77 410.903 3872.19 397.934C3883.6 384.966 3897.24 374.66 3912.3 367.625C3927.35 360.589 3943.52 356.965 3959.86 356.965C3976.19 356.965 3992.36 360.589 4007.42 367.625C4022.47 374.66 4036.11 384.966 4047.53 397.934C4058.94 410.903 4067.91 426.274 4073.9 443.143C4079.88 460.013 4082.77 478.041 4082.39 496.167H4082.46Z" fill="#526CB8"/>
<path d="M4285.27 912.286C4248.48 975.37 4038.94 1084.27 4038.94 1084.27C4038.94 1084.27 4042.77 827.467 4079.56 764.383C4097.61 735.085 4125.25 714.775 4156.6 707.784C4187.95 700.794 4220.52 707.677 4247.36 726.965C4274.2 746.253 4293.18 776.419 4300.27 811.027C4307.35 845.636 4301.97 881.946 4285.27 912.213V912.286Z" fill="#526CB8"/>
<path d="M4276.37 1623.41C4215.91 1657.22 3985.54 1633.87 3985.54 1633.87C3985.54 1633.87 4105.6 1414.32 4166.06 1380.51C4180.47 1372.04 4196.25 1366.85 4212.49 1365.24C4228.73 1363.62 4245.09 1365.62 4260.62 1371.11C4276.16 1376.6 4290.55 1385.47 4302.95 1397.21C4315.36 1408.95 4325.53 1423.32 4332.87 1439.47C4340.21 1455.63 4344.57 1473.25 4345.7 1491.3C4346.84 1509.35 4344.71 1527.47 4339.46 1544.6C4334.2 1561.72 4325.92 1577.52 4315.1 1591.05C4304.28 1604.58 4291.13 1615.58 4276.44 1623.41H4276.37Z" fill="#526CB8"/>
<path d="M4160.53 2159.77C4106.13 2204.41 3875.43 2224.61 3875.43 2224.61C3875.43 2224.61 3960.35 1985.74 4014.75 1941.02C4027.68 1930.23 4042.4 1922.38 4058.08 1917.94C4073.75 1913.49 4090.07 1912.53 4106.07 1915.12C4122.08 1917.7 4137.48 1923.78 4151.36 1933C4165.24 1942.22 4177.34 1954.4 4186.96 1968.84C4196.58 1983.28 4203.54 1999.69 4207.42 2017.12C4211.3 2034.55 4212.03 2052.67 4209.57 2070.42C4207.11 2088.16 4201.51 2105.2 4193.1 2120.53C4184.68 2135.87 4173.61 2149.2 4160.53 2159.77Z" fill="#526CB8"/>
<path d="M3781.6 1098.83C3830.13 1151.16 4056.35 1205.39 4056.35 1205.39C4056.35 1205.39 4000.97 956.051 3952.44 903.652C3928.96 879.516 3897.91 866.53 3865.92 867.467C3833.93 868.404 3803.54 883.191 3781.24 908.668C3758.94 934.145 3746.5 968.291 3746.58 1003.81C3746.66 1039.33 3759.26 1073.41 3781.67 1098.76L3781.6 1098.83Z" fill="#526CB8"/>
<path d="M3653.3 1727.99C3713.76 1761.8 3944.13 1738.45 3944.13 1738.45C3944.13 1738.45 3824.07 1518.9 3763.61 1485.09C3749.2 1476.62 3733.42 1471.43 3717.18 1469.81C3700.94 1468.2 3684.58 1470.2 3669.05 1475.69C3653.51 1481.18 3639.12 1490.05 3626.72 1501.79C3614.31 1513.53 3604.14 1527.9 3596.8 1544.05C3589.46 1560.21 3585.1 1577.83 3583.96 1595.88C3582.83 1613.93 3584.96 1632.05 3590.21 1649.18C3595.47 1666.3 3603.75 1682.1 3614.57 1695.63C3625.39 1709.16 3638.54 1720.16 3653.23 1727.99H3653.3Z" fill="#526CB8"/>
<path d="M3604.18 2358.53C3658.57 2403.18 3889.28 2423.37 3889.28 2423.37C3889.28 2423.37 3804.35 2184.43 3749.89 2139.79C3736.96 2129 3722.24 2121.15 3706.56 2116.7C3690.89 2112.26 3674.57 2111.3 3658.56 2113.89C3642.55 2116.47 3627.16 2122.55 3613.28 2131.77C3599.4 2140.99 3587.3 2153.17 3577.67 2167.61C3568.05 2182.05 3561.1 2198.45 3557.22 2215.89C3553.34 2233.32 3552.61 2251.43 3555.07 2269.18C3557.53 2286.93 3563.12 2303.97 3571.54 2319.3C3579.96 2334.64 3591.03 2347.97 3604.11 2358.53H3604.18Z" fill="#526CB8"/>
<path d="M3903.36 6056.11H3193.34C3176.51 6056.05 3160.38 6035.53 3148.48 5999.06C3136.58 5962.59 3129.88 5913.14 3129.86 5861.56V2705.62C3129.88 2654.04 3136.58 2604.59 3148.48 2568.12C3160.38 2531.64 3176.51 2511.13 3193.34 2511.07H3903.36C3920.19 2511.13 3936.32 2531.64 3948.22 2568.12C3960.12 2604.59 3966.81 2654.04 3966.83 2705.62V5861.56C3966.81 5913.14 3960.12 5962.59 3948.22 5999.06C3936.32 6035.53 3920.19 6056.05 3903.36 6056.11Z" fill="#786DFF"/>
<path d="M2154.59 2976.36C2152.03 3042.87 2136.62 3107.03 2110.09 3161.66C2083.56 3216.29 2046.97 3259.22 2004.41 3285.63C1839.43 3389.65 1541.96 3596.3 1341.89 3845.02C1037.92 4223.37 401.525 5124.39 384.668 5157.54L311.716 5093.62C311.716 5093.62 698.585 3926.81 1104.11 3663.19C1598.75 2565.46 1937.26 2498.76 1937.26 2498.76C2096.84 2583.52 2162.05 2749.07 2154.59 2976.36Z" fill="#42444A"/>
<path opacity="0.2" d="M2179.93 1297.6H1880.46V1960.64H2179.93V1297.6Z" fill="black"/>
<path d="M1852.43 800.322H1805.62V1297.6H1852.43V800.322Z" fill="#6C63FF"/>
<path d="M2282.85 800.322H2236.04V1297.6H2282.85V800.322Z" fill="#6C63FF"/>
<path d="M1889.82 833.474H1777.53V899.778H1889.82V833.474Z" fill="#6C63FF"/>
<path d="M2310.93 833.474H2198.65V899.778H2310.93V833.474Z" fill="#6C63FF"/>
<path d="M2030.19 634.562C2071.52 634.562 2105.02 575.191 2105.02 501.954C2105.02 428.717 2071.52 369.346 2030.19 369.346C1988.86 369.346 1955.35 428.717 1955.35 501.954C1955.35 575.191 1988.86 634.562 2030.19 634.562Z" fill="#6C63FF"/>
<path opacity="0.2" d="M2030.19 634.562C2071.52 634.562 2105.02 575.191 2105.02 501.954C2105.02 428.717 2071.52 369.346 2030.19 369.346C1988.86 369.346 1955.35 428.717 1955.35 501.954C1955.35 575.191 1988.86 634.562 2030.19 634.562Z" fill="black"/>
<path d="M2030.19 584.797C2056.04 584.797 2077 547.707 2077 501.954C2077 456.201 2056.04 419.111 2030.19 419.111C2004.34 419.111 1983.38 456.201 1983.38 501.954C1983.38 547.707 2004.34 584.797 2030.19 584.797Z" fill="#6C63FF"/>
<path d="M2376.47 284.454C2411.09 351.636 2455.59 416.184 2514.6 439.456C2533.33 446.774 2554.16 450.946 2567.35 469.534C2575.78 483.262 2581.24 498.965 2583.31 515.42C2604.87 633.026 2590.43 762.926 2632.76 870.359C2667.04 957.373 2732.65 1014.09 2784.8 1084.27C2836.95 1154.46 2877.9 1259.4 2846.25 1348.1C2837.11 1372.68 2822.97 1394.57 2804.93 1412.07C2786.89 1429.57 2765.44 1442.19 2742.27 1448.94C2698.62 1462.04 2653.06 1456.26 2608.76 1447.85C2550.34 1436.36 2490.87 1418.57 2442.21 1374.66C2358.01 1298.77 2322.41 1162.43 2278.36 1041.24C2257.66 984.451 2230.17 924.953 2184.67 904.608C2132.52 881.336 2073.97 920.196 2040.15 977.206C2006.32 1034.22 1991.29 1105.86 1974.94 1174.8C1956.48 1252.59 1933.07 1333.46 1884.54 1384.32C1863.5 1407.12 1836.96 1422.65 1808.12 1429.06C1779.29 1435.46 1749.41 1432.45 1722.08 1420.4C1668.02 1395.38 1625.23 1332.14 1612.83 1258.74C1593.64 1145.6 1639.6 1009.92 1583.23 920.489C1561.34 885.873 1527.91 866.992 1504.11 834.206C1474.77 793.15 1464.02 734.677 1461.71 678.546C1456.77 558.671 1493.82 425.112 1577.16 375.494C1599.45 362.248 1624.3 355.295 1643.89 335.975C1709.82 270.988 1678.76 111.229 1747.01 50.5606C1766.79 32.9234 1791.58 28.0202 1815.44 24.2878C1882.3 13.969 1948.7 12.798 2015.95 13.0175C2059.33 13.0175 2104.1 -3.00951 2147.02 0.503283C2262.47 10.1635 2320.3 175.631 2376.47 284.454Z" fill="#3F373B"/>
<path d="M1853.03 600.898C1853.03 600.898 1968.15 936.955 1797.97 1086.91C1627.8 1236.86 1767.97 1656.27 1767.97 1656.27L2423.55 1622.97C2423.55 1622.97 2488.63 1150.87 2453.55 1050.83C2453.55 1050.83 2298.41 1100.81 2263.4 995.282C2228.39 889.752 2203.33 600.898 2203.33 600.898H1853.03Z" fill="#FEBD99"/>
<path opacity="0.1" d="M2226.01 762.56C2216.45 683.449 2210.85 618.974 2210.85 618.974H1860.54C1876.72 669.9 1887.95 722.598 1894.03 776.172C1943.15 814.345 2002.16 833.672 2062.08 831.215C2122 828.758 2179.56 804.652 2226.01 762.56Z" fill="black"/>
<path d="M2044.43 813.276C2196.42 813.276 2319.64 676.514 2319.64 507.809C2319.64 339.105 2196.42 202.343 2044.43 202.343C1892.44 202.343 1769.22 339.105 1769.22 507.809C1769.22 676.514 1892.44 813.276 2044.43 813.276Z" fill="#FEBD99"/>
<path d="M1883.09 1039.71C1883.09 1039.71 1552.83 1109.16 1512.81 1200.71C1472.79 1292.26 1477.8 1606.22 1477.8 1606.22C1477.8 1606.22 1492.83 2120.04 1377.71 2183.85L947.363 2517.13C947.363 2517.13 642.091 2219.93 567.058 2394.91C492.026 2569.89 927.385 2633.78 927.385 2633.78L1412.79 2472.78L1567.93 2361.69C1567.93 2361.69 1640.46 2322.83 1647.97 2228.35L1713.05 1656.2L1973.29 1572.92H2393.48L2449.79 1394.5C2449.79 1394.5 2553.63 1486.85 2538.6 1572.92C2523.57 1658.98 2563.59 2216.93 2563.59 2216.93C2563.59 2216.93 2596.1 2341.93 2663.68 2377.93L3054.07 2533.96C3054.07 2533.96 3466.95 2578.38 3494.44 2378.45C3521.93 2178.51 3089.08 2406.18 3089.08 2406.18L2778.8 2139.58C2778.8 2139.58 2753.81 2028.48 2743.79 1950.69C2733.77 1872.9 2718.8 1539.69 2718.8 1539.69C2718.8 1539.69 2813.87 1189.73 2538.67 1128.7L2183.35 1006.48L1883.09 1039.71Z" fill="#FEBD99"/>
<path opacity="0.1" d="M1661.62 1110.47L1712.92 1486.78C1712.92 1486.78 1660.17 1661.76 1712.92 1833.96C1765.66 2006.16 1647.77 2647.69 1647.77 2647.69C1647.77 2647.69 2265.77 2867.24 2643.37 2614.39C2643.37 2614.39 2365.66 1964.52 2483.22 1747.9C2600.78 1531.28 2485.13 1446.53 2485.13 1446.53L2503.59 1048.34L2418.54 1020.6L2368.49 1414.26C2368.49 1414.26 2023.2 1680.86 1767.97 1447.56L1712.92 1019.87L1661.62 1110.47Z" fill="black"/>
<path opacity="0.07" d="M2018.59 1557.77C1991.86 1510.35 1950.18 1475.69 1901.67 1460.55C1853.16 1445.41 1801.31 1450.87 1756.24 1475.88C1840.04 1545.47 1932.41 1564.06 2018.59 1557.77Z" fill="white"/>
<path opacity="0.07" d="M2160.41 1516.05C2187.13 1468.64 2228.82 1433.98 2277.33 1418.84C2325.83 1403.69 2377.68 1409.16 2422.76 1434.16C2339.02 1503.76 2246.58 1522.42 2160.41 1516.05Z" fill="white"/>
<path opacity="0.1" d="M1661.62 1110.47L1712.92 1467.31C1712.92 1467.31 1660.17 1642.29 1712.92 1814.49C1765.66 1986.69 1647.77 2628.22 1647.77 2628.22C1647.77 2628.22 2265.77 2847.77 2643.37 2594.92C2643.37 2594.92 2365.66 1945.05 2483.22 1728.43C2600.78 1511.81 2485.13 1427.06 2485.13 1427.06L2503.19 1028.58L2418.14 1000.84L2368.1 1395.23C2368.1 1395.23 2022.8 1661.83 1767.57 1428.53L1712.52 1000.84L1661.62 1110.47Z" fill="black"/>
<path d="M1659.11 1107.69L1712.92 1472.88C1712.92 1472.88 1660.17 1647.86 1712.92 1820.06C1765.66 1992.26 1647.77 2633.78 1647.77 2633.78C1647.77 2633.78 2265.77 2853.33 2643.37 2600.48C2643.37 2600.48 2365.66 1950.62 2483.22 1733.99C2600.78 1517.37 2485.13 1432.63 2485.13 1432.63L2503.19 1034.14L2418.14 1006.41L2368.1 1400.79C2368.1 1400.79 2022.8 1667.4 1767.57 1434.09L1712.52 1006.41L1659.11 1107.69Z" fill="#4868C7"/>
<path opacity="0.1" d="M1769.22 1863.09C1769.22 1863.09 2004.41 1901.95 2044.43 1832.57L1769.22 1863.09Z" fill="black"/>
<path opacity="0.1" d="M2214.8 1818.67C2214.8 1818.67 2259.84 1868.65 2439.97 1832.57L2214.8 1818.67Z" fill="black"/>
<path opacity="0.1" d="M1756.7 1043.8C1756.7 1043.8 1929.31 1071.54 1961.88 1054.93L1756.7 1043.8Z" fill="black"/>
<path opacity="0.1" d="M2137.07 1043.8C2137.07 1043.8 2309.68 1071.54 2342.25 1054.93L2137.07 1043.8Z" fill="black"/>
<path opacity="0.1" d="M1694.59 1007.43C1673.62 1061.51 1666.17 1125.33 1688.46 1178.75C1705.47 1219.52 1738.7 1252.52 1745.09 1296.87C1753.14 1352.49 1716.02 1409.06 1729.86 1463.22C1735.14 1484 1747.47 1501.56 1759.99 1518.03C1798.1 1568.01 1848.74 1616.39 1907.55 1612.51C1916.85 1511.66 1838.32 1413.82 1864.04 1316.56C1873.27 1281.72 1894.89 1252.74 1907.95 1219.52C1929.64 1164.41 1926.54 1101.47 1918.7 1041.97C1907.29 955.691 1878.41 849.795 1801.33 809.398C1765.86 790.809 1715.62 789.492 1702.96 839.915C1696.37 866.846 1712.19 892.168 1714.37 918.514C1717.14 951.959 1706.26 977.353 1694.59 1007.43Z" fill="black"/>
<path d="M1694.59 999.087C1673.62 1053.17 1666.17 1116.99 1688.46 1170.41C1705.47 1211.17 1738.7 1244.18 1745.09 1288.53C1753.14 1344.15 1716.02 1400.72 1729.86 1454.87C1735.14 1475.66 1747.47 1493.22 1759.99 1509.69C1798.1 1559.67 1848.74 1608.04 1907.55 1604.17C1916.85 1503.32 1838.32 1405.47 1864.04 1308.21C1873.27 1273.38 1894.89 1244.4 1907.95 1211.17C1929.64 1156.07 1926.54 1093.13 1918.7 1033.63C1907.29 947.347 1878.41 841.451 1801.33 801.054C1765.86 782.465 1715.62 781.148 1702.96 831.571C1696.37 858.503 1712.19 883.824 1714.37 910.17C1717.14 943.688 1706.26 969.082 1694.59 999.087Z" fill="#3A3A3A"/>
<path opacity="0.1" d="M1714.17 357.856C1714.17 357.856 2079.51 302.31 2089.46 385.593C2099.42 468.875 2422.23 605.142 2422.23 605.142L2342.19 385.593L2194.56 113.424C2194.56 113.424 1924.24 91.4693 1911.84 113.424C1899.44 135.379 1756.7 207.831 1756.7 207.831L1714.17 357.856Z" fill="black"/>
<path d="M1714.17 352.295C1714.17 352.295 2079.51 296.749 2089.46 380.031C2099.42 463.314 2422.23 599.581 2422.23 599.581L2342.19 380.031L2194.56 107.936C2194.56 107.936 1924.24 85.9815 1911.84 107.936C1899.44 129.891 1756.7 202.343 1756.7 202.343L1714.17 352.295Z" fill="#393738"/>
<path opacity="0.1" d="M2349.9 945.883C2367.67 969.496 2380.22 997.387 2386.56 1027.34C2392.63 1055.95 2392.82 1085.88 2398.63 1114.57C2410.95 1175.68 2447.35 1227.05 2485.39 1273.3C2497.7 1290.06 2512.73 1304.11 2529.7 1314.73C2547.11 1324.24 2569.26 1326.22 2585.42 1314.73C2570.12 1300.82 2561.81 1279.53 2556.34 1258.38C2548.64 1228.89 2545.21 1198.23 2546.18 1167.55C2547.83 1116.33 2561.35 1062.24 2542.16 1015.55C2531.09 988.622 2510.45 968.13 2489.42 949.688C2474.8 936.5 2459.03 924.977 2442.34 915.292C2411.28 898.094 2375.61 890.556 2341.33 886.824C2296.63 881.701 2335.72 927.002 2349.9 945.883Z" fill="black"/>
<path d="M2349.9 937.467C2367.68 961.123 2380.24 989.066 2386.56 1019.07C2392.63 1047.68 2392.82 1077.61 2398.63 1106.3C2410.95 1167.41 2447.35 1218.78 2485.39 1265.03C2497.7 1281.79 2512.73 1295.84 2529.7 1306.46C2547.11 1315.97 2569.26 1317.95 2585.42 1306.46C2570.12 1292.55 2561.81 1271.26 2556.34 1250.11C2548.64 1220.62 2545.21 1189.96 2546.18 1159.29C2547.83 1108.06 2561.35 1053.97 2542.16 1007.28C2531.09 980.353 2510.45 959.861 2489.42 941.419C2474.8 928.231 2459.03 916.708 2442.34 907.023C2411.28 889.825 2375.61 882.287 2341.33 878.555C2296.63 873.359 2335.72 918.659 2349.9 937.467Z" fill="#3D3539"/>
</svg>
