<svg width="270" height="501" viewBox="0 0 270 501" fill="none" xmlns="http://www.w3.org/2000/svg">
<path d="M26.009 139.879C19.7667 139.645 15.683 139.061 11.5261 139.063C6.40785 139.078 4.37732 138.826 4.68463 138.123C5.07612 137.19 4.8664 137.554 14.4905 136.558C14.4905 136.558 0.758996 137.89 3.93073 135.966C5.60679 135.413 7.33605 135.047 9.04604 134.882C5.52933 135.102 4.08194 134.706 4.14007 134.067C4.22445 132.992 12.4456 131.918 16.1774 131.46C12.6566 131.895 9.15754 132.155 5.70614 132.24C3.90021 132.048 5.97565 130.926 7.96387 130.286C10.1976 129.622 23.4821 126.645 27.3022 125.655C27.6319 125.598 27.9574 125.492 28.2562 125.346C28.555 125.199 28.8198 125.014 29.0323 124.805C29.2448 124.596 29.3999 124.367 29.4869 124.134C29.5738 123.9 29.5904 123.669 29.5356 123.455C27.8158 120.079 29.3269 116.364 30.3841 115.37C31.4412 114.375 33.4085 114.772 33.2173 115.995C33.1974 117.3 33.4306 118.558 33.9107 119.735C34.2332 120.696 34.8142 121.566 35.627 122.305C36.5545 123.177 37.4017 123.867 38.1639 124.467L105.115 119.083L142.991 91.2037L179.129 91.3553L130.4 125.639C125.589 129.025 120.036 131.803 114.113 133.789C108.189 135.775 102.032 136.921 96.0523 137.152L26.009 139.879Z" fill="#FFB573"/>
<path d="M60.6749 310.372C61.5333 315.932 72.3567 385.32 72.7228 387.845C73.3173 392.786 73.5947 397.732 73.5526 402.633C73.5726 404.644 76.1567 404.881 75.8532 406.931C75.5496 408.982 74.7946 411.826 75.8981 413.64C76.4289 414.474 77.0738 415.19 77.7967 415.746C81.0305 418.258 84.7685 419.24 88.2463 418.49C90.0982 418.19 91.7921 417.264 93.1522 415.808C95.7721 412.764 96.1555 407.847 97.047 403.622C98.0512 399.026 96.5626 396.909 95.98 392.145C95.3318 386.814 97.7218 318.746 97.6401 313.445C89.1598 304.667 68.6291 306.439 60.6749 310.372Z" fill="#FFB573"/>
<path d="M62.8838 250.244C72.0091 239.864 95.8767 215.817 127.398 204.455L207.905 254.37L139.087 282.108L96.2836 294.391C99.0806 308.731 98.3552 311.591 98.3251 319.433C98.2763 333.704 97.5787 347.864 96.2354 361.845C90.1911 369.046 71.6441 365.476 68.2489 361.098C64.2907 340.699 61.093 315.234 56.9932 289.694C53.4504 267.358 54.969 259.274 62.8838 250.244Z" fill="#37474F"/>
<path d="M101.568 292.949C99.3083 281.277 100.572 275.987 105.702 269.508C110.833 263.03 141.018 237.573 141.018 237.573C141.018 237.573 137.078 226.833 138.989 217.144L150.183 239.366L105.569 291.839L101.568 292.949Z" fill="#263238"/>
<path d="M95.8937 391.527C97.5333 392.072 97.7499 394.312 96.9861 396.308C96.6034 397.348 96.1609 398.347 95.6614 399.296L95.8937 391.527Z" fill="#6C63FF"/>
<path opacity="0.3" d="M95.8937 391.527C97.5333 392.072 97.7499 394.312 96.9861 396.308C96.6034 397.348 96.1609 398.347 95.6614 399.296L95.8937 391.527Z" fill="black"/>
<path d="M63.8998 430.36C66.3039 425.475 71.7191 409.837 72.3494 405.214C72.9797 400.592 70.8614 397.305 74.6352 397.91C78.4089 398.516 83.6106 398.64 84.5799 401.261C85.5492 403.882 84.7312 410.304 81.9141 418.322C79.097 426.34 72.523 434.756 72.523 434.756L63.8998 430.36Z" fill="#6C63FF"/>
<path opacity="0.1" d="M63.8998 430.36C66.3039 425.475 71.7191 409.837 72.3494 405.214C72.9797 400.592 70.8614 397.305 74.6352 397.91C78.4089 398.516 83.6106 398.64 84.5799 401.261C85.5492 403.882 84.7312 410.304 81.9141 418.322C79.097 426.34 72.523 434.756 72.523 434.756L63.8998 430.36Z" fill="black"/>
<path d="M50.6169 455.268C50.6681 457.207 50.9885 458.52 56.7264 460.62C62.4642 462.719 70.5639 462.088 77.1397 459.481C83.7156 456.874 88.4806 448.565 90.5475 442.837C92.6144 437.109 97.7311 431.516 101.196 428.535C104.662 425.555 105.298 424.418 104.769 422.789C104.24 421.161 102.502 416.859 102.502 416.859L50.6169 455.268Z" fill="#EBEBEB"/>
<path d="M95.8937 391.527C97.2808 392.523 96.9709 395.511 95.2723 398.178C94.6531 399.834 94.8994 405.332 93.0744 406.309C91.2495 407.285 88.9402 403.023 86.8348 403.169C84.7294 403.315 83.4024 408.055 81.3051 413.959C79.2079 419.863 73.0136 433.161 71.7775 433.247C70.5414 433.333 65.6992 429.888 63.8951 430.325C61.554 433.919 59.0395 437.324 56.363 440.526C52.587 444.916 51.2247 446.259 50.1101 447.411C48.9955 448.564 49.241 452.484 50.2686 454.737C51.2962 456.99 62.2405 461.902 72.3943 458.006C82.5482 454.111 84.8587 447.967 87.4976 440.343C89.4465 434.631 92.6319 429.842 96.7362 426.451C99.3065 424.626 101.513 422.159 103.238 419.184C103.411 416.057 102.961 412.831 101.926 409.788C100.167 404.36 98.259 399.827 98.211 395.355C98.1629 390.884 95.8281 389.485 95.8281 389.485C95.8281 389.485 95.8729 390.297 95.8937 391.527Z" fill="#6C63FF"/>
<path d="M51.2543 449.812C53.2854 450.313 55.5067 450.801 55.7225 451.757C55.9383 452.713 56.7742 458.015 58.0647 459.694C58.6761 460.445 59.4026 461.028 60.1872 461.398C60.9718 461.768 61.7931 461.914 62.5864 461.826C64.4761 461.903 72.4088 461.353 76.7721 459.107C81.5834 456.802 85.5482 452.647 88.1506 447.183C91.3744 440.803 91.6436 437.818 96.3249 432.741C101.006 427.664 102.916 426.803 104.861 423.841C105.162 424.542 105.415 425.267 105.616 426.009C105.141 427.159 104.438 428.117 103.565 428.805C102.003 430.092 96.6318 434.35 94.6671 437.175C92.514 440.726 90.6031 444.511 88.9512 448.498C86.1893 454.078 82.0269 458.273 77.0119 460.53C71.2382 462.891 62.9596 463.812 57.1563 461.734C51.3529 459.657 50.8527 458.235 50.2598 457.426C49.4162 455.182 48.952 452.795 48.8988 450.427C49.0698 449.392 49.8065 449.462 51.2543 449.812Z" fill="#455A64"/>
<path d="M73.8828 432.512C69.4913 429.347 65.954 428.275 64.5454 428.893C63.9883 429.41 63.6111 430.17 63.4747 431.048C63.4747 431.048 66.3847 430.673 72.5501 434.755C72.9619 434.654 73.3177 434.378 73.5595 433.971C73.8014 433.564 73.9153 433.05 73.8828 432.512V432.512Z" fill="#455A64"/>
<path d="M66.7769 423.361C70.1976 423.123 73.7202 424.54 76.6289 427.326C77.0137 427.189 77.3427 426.906 77.5738 426.513C77.8049 426.12 77.9275 425.635 77.9257 425.12C77.9257 425.12 72.8869 420.266 67.611 421.083C67.6086 421.066 66.4948 422.028 66.7769 423.361Z" fill="#455A64"/>
<path d="M69.4518 415.7C71.6682 414.385 77.7808 417.204 80.1563 419.485C80.3819 419.45 80.5939 419.357 80.7796 419.212C80.9653 419.067 81.121 418.873 81.2372 418.641C81.3535 418.41 81.4279 418.145 81.4561 417.864C81.4843 417.583 81.4656 417.291 81.4011 417.005C78.1119 413.99 74.1812 412.488 70.3761 412.792C70.3761 412.792 68.8692 413.885 69.4518 415.7Z" fill="#455A64"/>
<path d="M71.6496 408.454C73.5142 408.081 75.4659 408.195 77.3873 408.789C79.3086 409.383 81.1599 410.445 82.8296 411.911C83.1784 411.674 83.4504 411.305 83.6114 410.849C83.7723 410.394 83.815 409.872 83.734 409.35C82.0851 407.669 80.1814 406.461 78.1837 405.83C76.186 405.199 74.1529 405.163 72.256 405.724C71.78 406.468 71.5641 407.441 71.6496 408.454V408.454Z" fill="#455A64"/>
<path d="M111.342 332.908C112.201 338.468 125.944 425.24 126.31 427.764C126.819 432.622 127.011 437.475 126.882 442.276C126.706 444.265 126.385 446.208 125.923 448.084C125.633 450.133 128.31 448.577 129.414 450.391C129.944 451.225 130.589 451.941 131.312 452.497C134.546 455.009 138.284 455.991 141.762 455.24C143.614 454.941 145.308 454.015 146.668 452.559C149.288 449.515 149.671 444.598 150.563 440.373C151.567 435.777 150.078 433.66 149.496 428.896C148.847 423.564 147.235 340.876 147.154 335.575C138.676 326.814 119.256 328.977 111.342 332.908Z" fill="#FFB573"/>
<path d="M104.936 298.803C104.357 294.161 101.849 282.974 109.3 273.369C119.085 260.74 146.575 240.05 146.575 240.05C140.916 229.568 127.236 211.248 127.399 204.455C126.411 197.378 129.764 188.681 132.167 183.988C138.536 197.976 184.38 195.975 203.38 191.691C215.396 218.33 216.1 236.25 212.541 253.494C210.471 263.419 201.292 275.087 195.836 279.628C171.792 299.264 157.471 304.16 146.546 310.191C148.253 317.99 149.124 325.918 149.135 333.755C149.371 345.272 148.996 372.65 148.445 386.684C142.401 393.885 122.325 390.665 118.933 386.304C114.978 365.835 108.057 323.614 104.936 298.803Z" fill="#37474F"/>
<path d="M149.249 424.577C150.903 425.122 151.119 427.361 150.355 429.357C149.973 430.398 149.53 431.396 149.031 432.345L149.249 424.577Z" fill="#6C63FF"/>
<path opacity="0.3" d="M149.249 424.577C150.903 425.122 151.119 427.361 150.355 429.357C149.973 430.398 149.53 431.396 149.031 432.345L149.249 424.577Z" fill="black"/>
<path d="M117.269 463.409C119.675 458.542 125.088 442.886 125.719 438.264C126.349 433.641 124.233 430.371 127.991 430.96C131.749 431.55 136.966 431.691 137.949 434.311C138.932 436.931 138.087 443.355 135.27 451.372C132.453 459.39 125.892 467.806 125.892 467.806L117.269 463.409Z" fill="#6C63FF"/>
<path opacity="0.1" d="M117.269 463.409C119.675 458.542 125.088 442.886 125.719 438.264C126.349 433.641 124.233 430.371 127.991 430.96C131.749 431.55 136.966 431.691 137.949 434.311C138.932 436.931 138.087 443.355 135.27 451.372C132.453 459.39 125.892 467.806 125.892 467.806L117.269 463.409Z" fill="black"/>
<path d="M103.986 488.317C104.04 490.273 104.36 491.587 110.085 493.687C115.809 495.787 123.933 495.137 130.495 492.531C137.058 489.925 141.839 481.633 143.903 475.887C145.968 470.142 151.089 464.583 154.539 461.587C157.988 458.59 158.657 457.485 158.112 455.841C157.567 454.196 155.914 449.923 155.914 449.923L103.986 488.317Z" fill="#EBEBEB"/>
<path d="M149.249 424.577C150.653 425.59 150.34 428.56 148.644 431.245C148.025 432.901 148.203 438.404 146.446 439.375C144.689 440.347 142.309 436.072 140.204 436.218C138.099 436.364 136.774 441.122 134.661 447.009C132.548 452.897 126.369 466.212 125.133 466.298C123.897 466.383 119.068 462.937 117.264 463.375C114.919 466.974 112.401 470.385 109.721 473.593C105.943 477.966 104.596 479.325 103.466 480.462C102.335 481.598 102.613 485.551 103.64 487.804C104.668 490.056 115.542 494.956 125.764 491.056C135.985 487.155 138.217 481.034 140.853 473.393C142.815 467.687 146.004 462.9 150.105 459.501C152.675 457.687 154.879 455.226 156.596 452.252C156.777 449.119 156.325 445.886 155.282 442.838C153.537 437.409 151.631 432.893 151.583 428.422C151.535 423.95 149.186 422.552 149.186 422.552C149.186 422.552 149.245 423.364 149.249 424.577Z" fill="#6C63FF"/>
<path d="M104.624 482.862C106.655 483.362 108.878 483.867 109.01 484.812C109.142 485.757 110.076 491.069 111.366 492.748C111.975 493.504 112.702 494.092 113.487 494.465C114.273 494.838 115.095 494.986 115.89 494.897C117.777 494.957 125.71 494.407 130.076 492.179C134.885 489.87 138.845 485.708 141.438 480.238C144.665 473.875 144.947 470.889 149.626 465.795C154.305 460.701 156.22 459.874 158.163 456.895C158.457 457.605 158.71 458.335 158.92 459.08C158.443 460.23 157.734 461.184 156.853 461.859C155.305 463.146 149.933 467.404 147.971 470.246C145.812 473.786 143.9 477.567 142.253 481.552C139.495 487.136 135.331 491.332 130.313 493.584C124.542 495.962 116.261 496.866 110.458 494.788C104.654 492.711 104.154 491.289 103.564 490.497C102.72 488.253 102.256 485.866 102.203 483.498C102.418 482.39 103.176 482.511 104.624 482.862Z" fill="#455A64"/>
<path d="M127.279 465.559C122.874 462.396 119.353 461.339 117.942 461.94C117.381 462.454 117.003 463.215 116.871 464.096C116.871 464.096 119.784 463.737 125.947 467.802C126.36 467.705 126.717 467.43 126.959 467.022C127.201 466.614 127.314 466.098 127.279 465.559V465.559Z" fill="#455A64"/>
<path d="M120.146 456.411C123.567 456.188 127.085 457.603 129.998 460.375C130.386 460.243 130.718 459.959 130.947 459.561C131.176 459.163 131.292 458.672 131.279 458.153C131.279 458.153 126.254 453.299 120.978 454.115C120.978 454.115 119.862 455.164 120.146 456.411Z" fill="#455A64"/>
<path d="M122.78 448.753C124.983 447.438 131.098 450.274 133.471 452.538C133.698 452.505 133.912 452.414 134.099 452.27C134.287 452.126 134.444 451.932 134.562 451.7C134.679 451.468 134.755 451.203 134.784 450.92C134.813 450.638 134.794 450.344 134.73 450.057C131.441 447.044 127.51 445.548 123.707 445.861C123.707 445.861 122.241 446.952 122.78 448.753Z" fill="#455A64"/>
<path d="M125.005 441.505C126.873 441.135 128.828 441.252 130.752 441.849C132.676 442.446 134.529 443.51 136.201 444.977C136.552 444.739 136.825 444.367 136.986 443.908C137.146 443.449 137.187 442.924 137.103 442.4C135.453 440.722 133.549 439.517 131.552 438.886C129.555 438.255 127.523 438.216 125.625 438.773C125.149 439.519 124.928 440.49 125.005 441.505V441.505Z" fill="#455A64"/>
<path d="M231.067 167.856C226.726 169.545 222.489 169.731 218.474 168.41C215.985 167.642 213.584 166.342 211.294 164.521C208.354 162.407 205.713 158.972 203.473 154.345C199.153 144.853 197.324 129.622 196.632 113.855C195.939 98.0873 196.242 81.3766 195.586 65.5711C195.44 58.9426 194.744 52.85 193.539 47.6416C192.931 45.0466 192.038 43.0425 190.931 41.7881C189.824 40.5337 188.533 40.0634 187.16 40.4145C185.135 41.22 182.875 44.1471 181.165 42.7126C178.986 40.6984 179.427 31.6282 181.395 25.9491C185.153 15.0836 191.717 11.1823 196.971 10.206C198.341 9.95882 199.636 9.91677 200.755 9.98045C208.347 10.4367 213.614 20.314 217.043 34.8975C219.106 44.1523 220.673 54.2827 221.716 65.1067C222.857 75.7235 224.454 86.6598 228.014 92.5622C232.136 99.444 238.115 97.6175 243.702 91.992C246.943 88.7224 250.485 84.2874 253.298 86.2573C254.335 87.0179 255.219 88.429 255.884 90.388C256.55 92.347 256.982 94.8043 257.147 97.5811C257.451 103.188 257.121 109.347 256.189 115.453C255.008 123.993 253.111 132.298 250.645 139.725C248.179 147.153 245.209 153.505 241.965 158.291C238.418 163.232 234.707 166.489 231.067 167.856Z" fill="#313537"/>
<path d="M214.418 34.3374C211.854 25.1105 204.41 16.5791 185.501 15.1444C173.682 13.8602 164.249 17.0517 150.154 15.7284C143.753 15.1315 137.876 14.8122 133.177 16.2983C127.84 17.9949 124.073 21.8573 123.634 26.8935C123.377 29.5579 124.508 32.0667 126.814 33.9482C121.179 38.9595 123.913 47.4747 134.149 49.5398L139.358 75.2485C139.358 75.2485 184.817 84.2947 186.106 78.4852C197.343 67.0843 220.845 57.1831 214.418 34.3374Z" fill="#313537"/>
<path d="M182.913 87.6164L188.569 67.3546C188.569 67.3546 191.682 70.821 199.23 67.3963C206.003 64.3185 210.045 57.5428 206.567 53.9478C204.117 51.4006 195.079 49.8828 190.242 55.1886C190.242 55.1886 179.516 54.6337 166.99 47.2529C154.463 39.872 152.515 33.4888 144.016 32.6543C139.464 34.8068 134.072 41.2545 130.69 58.4805C128.189 71.2169 134.813 77.4259 138.513 79.6637C141.443 81.4953 145.198 81.4238 152.988 81.099L151.645 88.597C136.18 98.368 163.67 100.513 182.913 87.6164Z" fill="#FFB573"/>
<path d="M162.261 53.0885C162.144 53.5458 162.218 53.9993 162.473 54.3925C162.728 54.7857 163.153 55.1011 163.695 55.2993C164.237 55.4975 164.872 55.5698 165.521 55.507C166.169 55.4442 166.803 55.2492 167.342 54.9464C167.881 54.6435 168.302 54.2463 168.552 53.8042C168.802 53.3621 168.87 52.8948 168.748 52.4607C168.626 52.0266 168.318 51.6449 167.865 51.3634C167.411 51.0818 166.831 50.9129 166.196 50.8776C165.326 50.8434 164.426 51.0561 163.689 51.4697C162.953 51.8834 162.44 52.4648 162.261 53.0885V53.0885Z" fill="#263238"/>
<path d="M135.712 47.1531L143.148 43.9518C142.923 43.6313 142.604 43.3543 142.208 43.1368C141.813 42.9193 141.349 42.7657 140.844 42.6848C140.339 42.604 139.803 42.5975 139.266 42.6657C138.729 42.734 138.203 42.8756 137.717 43.0824C136.722 43.5097 135.954 44.1759 135.579 44.9373C135.204 45.6988 135.251 46.4945 135.712 47.1531V47.1531Z" fill="#263238"/>
<path d="M138.871 53.6449C138.772 53.952 138.759 54.2619 138.833 54.5564C138.907 54.8508 139.066 55.124 139.301 55.3597C139.536 55.5955 139.842 55.7891 140.202 55.9292C140.561 56.0693 140.967 56.153 141.395 56.1756C142.266 56.2132 143.169 56.0018 143.906 55.5874C144.644 55.1731 145.156 54.5896 145.33 53.9646C145.418 53.6595 145.422 53.3531 145.341 53.0629C145.26 52.7727 145.096 52.5043 144.858 52.2732C144.621 52.042 144.314 51.8526 143.955 51.7157C143.597 51.5788 143.194 51.4971 142.77 51.4753C142.346 51.4535 141.908 51.492 141.482 51.5886C141.057 51.6852 140.651 51.838 140.289 52.0383C139.926 52.2386 139.614 52.4825 139.371 52.756C139.127 53.0296 138.956 53.3274 138.868 53.6325L138.871 53.6449Z" fill="#263238"/>
<path d="M154.286 49.8912L153.004 63.9488L141.983 62.748L154.286 49.8912Z" fill="#CA9261"/>
<path d="M151.145 72.7252C149.495 73.0987 147.904 72.4897 147.592 71.3649C147.279 70.2401 148.363 69.0255 150.013 68.652C151.663 68.2785 153.254 68.8875 153.566 70.0123C153.879 71.1371 152.795 72.3517 151.145 72.7252Z" fill="#FB4B69"/>
<path d="M152.887 81.0823C160.629 80.5175 176.906 77.6377 180.287 73.3612C178.837 75.5575 176.506 77.4694 173.617 78.8311C168.349 81.5417 152.364 84.5666 152.364 84.5666L152.887 81.0823Z" fill="#A07248"/>
<path d="M190.509 53.9927L188.947 61.0518C188.031 61.0442 187.149 60.9077 186.354 60.6501C185.558 60.3925 184.864 60.0189 184.311 59.5506C183.758 59.0823 183.358 58.5285 183.132 57.9211C182.906 57.3136 182.86 56.6643 182.996 56.0104L184.507 49.1872L190.509 53.9927Z" fill="#313537"/>
<path d="M204.259 192.969C202.174 184.114 199.12 175.292 199.12 175.292C199.12 175.292 200.774 163.169 203.842 148.639C206.821 134.659 206.925 109.983 206.508 105.805C205.599 96.8287 202.204 91.8764 193.431 89.4002L176.064 87.5087L148.286 87.9214C144.309 87.9214 130.04 101.953 120.463 118.702C115.131 128.004 112.658 142.053 124.544 155.896C124.037 165.817 128.044 180.434 128.044 180.434C128.044 180.434 124.812 196.752 150.386 201.877C185.358 208.927 204.259 192.969 204.259 192.969Z" fill="#FFB573"/>
<path d="M196.007 89.4002L176.064 87.5087L148.286 87.9214C144.309 87.9214 130.04 101.953 120.463 118.702C115.131 128.004 112.196 142.07 124.097 155.913C123.972 159.677 124.374 163.44 125.289 167.056C125.289 167.056 161.333 193.296 200.55 165.817C201.34 161.157 202.427 155.139 203.797 148.622C206.776 134.642 206.88 109.966 206.463 105.788C205.599 96.8287 204.78 91.8764 196.007 89.4002Z" fill="#6C63FF"/>
<path d="M139.892 136.592C139.892 136.592 145.433 147.322 159.538 147.528C165.129 147.648 170.603 145.677 175.143 141.908C179.682 138.139 183.044 132.775 184.725 126.618C184.725 126.618 183.101 149.901 161.504 152.412C143.735 154.544 139.892 136.592 139.892 136.592Z" fill="#C13A83"/>
<path d="M60.6749 310.372C61.5333 315.932 72.3567 385.32 72.7228 387.845C73.3173 392.786 73.5947 397.732 73.5526 402.633C73.5726 404.644 76.1567 404.881 75.8532 406.931C75.5496 408.982 74.7946 411.826 75.8981 413.64C76.4289 414.474 77.0738 415.19 77.7967 415.746C81.0305 418.258 84.7685 419.24 88.2463 418.49C90.0982 418.19 91.7921 417.264 93.1522 415.808C95.7721 412.764 96.1555 407.847 97.047 403.622C98.0512 399.026 96.5626 396.909 95.98 392.145C95.3318 386.814 97.7218 318.746 97.6401 313.445C89.1598 304.667 68.6291 306.439 60.6749 310.372Z" fill="#FFB573"/>
<path d="M62.8838 250.244C72.0091 239.864 95.8767 215.817 127.398 204.455L207.905 254.37L139.087 282.108L96.2836 294.391C99.0806 308.731 98.3552 311.591 98.3251 319.433C98.2763 333.704 97.5787 347.864 96.2354 361.845C90.1911 369.046 71.6441 365.476 68.2489 361.098C64.2907 340.699 61.093 315.234 56.9932 289.694C53.4504 267.358 54.969 259.274 62.8838 250.244Z" fill="#37474F"/>
<path d="M101.568 292.949C99.3083 281.277 100.572 275.987 105.702 269.508C110.833 263.03 141.018 237.573 141.018 237.573C141.018 237.573 137.078 226.833 138.989 217.144L150.183 239.366L105.569 291.839L101.568 292.949Z" fill="#263238"/>
<path d="M95.8937 391.527C97.5333 392.072 97.7499 394.312 96.9861 396.308C96.6034 397.348 96.1609 398.347 95.6614 399.296L95.8937 391.527Z" fill="#6C63FF"/>
<path opacity="0.3" d="M95.8937 391.527C97.5333 392.072 97.7499 394.312 96.9861 396.308C96.6034 397.348 96.1609 398.347 95.6614 399.296L95.8937 391.527Z" fill="black"/>
<path d="M63.8998 430.36C66.3039 425.475 71.7191 409.837 72.3494 405.214C72.9797 400.592 70.8614 397.305 74.6352 397.91C78.4089 398.516 83.6106 398.64 84.5799 401.261C85.5492 403.882 84.7312 410.304 81.9141 418.322C79.097 426.34 72.523 434.756 72.523 434.756L63.8998 430.36Z" fill="#6C63FF"/>
<path opacity="0.1" d="M63.8998 430.36C66.3039 425.475 71.7191 409.837 72.3494 405.214C72.9797 400.592 70.8614 397.305 74.6352 397.91C78.4089 398.516 83.6106 398.64 84.5799 401.261C85.5492 403.882 84.7312 410.304 81.9141 418.322C79.097 426.34 72.523 434.756 72.523 434.756L63.8998 430.36Z" fill="black"/>
<path d="M50.6169 455.268C50.6681 457.207 50.9885 458.52 56.7264 460.62C62.4642 462.719 70.5639 462.088 77.1397 459.481C83.7156 456.874 88.4806 448.565 90.5475 442.837C92.6144 437.109 97.7311 431.516 101.196 428.535C104.662 425.555 105.298 424.418 104.769 422.789C104.24 421.161 102.502 416.859 102.502 416.859L50.6169 455.268Z" fill="#EBEBEB"/>
<path d="M95.8937 391.527C97.2808 392.523 96.9709 395.511 95.2723 398.178C94.6531 399.834 94.8994 405.332 93.0744 406.309C91.2495 407.285 88.9402 403.023 86.8348 403.169C84.7294 403.315 83.4024 408.055 81.3051 413.959C79.2079 419.863 73.0136 433.161 71.7775 433.247C70.5414 433.333 65.6992 429.888 63.8951 430.325C61.554 433.919 59.0395 437.324 56.363 440.526C52.587 444.916 51.2247 446.259 50.1101 447.411C48.9955 448.564 49.241 452.484 50.2686 454.737C51.2962 456.99 62.2405 461.902 72.3943 458.006C82.5482 454.111 84.8587 447.967 87.4976 440.343C89.4465 434.631 92.6319 429.842 96.7362 426.451C99.3065 424.626 101.513 422.159 103.238 419.184C103.411 416.057 102.961 412.831 101.926 409.788C100.167 404.36 98.259 399.827 98.211 395.355C98.1629 390.884 95.8281 389.485 95.8281 389.485C95.8281 389.485 95.8729 390.297 95.8937 391.527Z" fill="#6C63FF"/>
<path d="M51.2543 449.812C53.2854 450.313 55.5067 450.801 55.7225 451.757C55.9383 452.713 56.7742 458.015 58.0647 459.694C58.6761 460.445 59.4026 461.028 60.1872 461.398C60.9718 461.768 61.7931 461.914 62.5864 461.826C64.4761 461.903 72.4088 461.353 76.7721 459.107C81.5834 456.802 85.5482 452.647 88.1506 447.183C91.3744 440.803 91.6436 437.818 96.3249 432.741C101.006 427.664 102.916 426.803 104.861 423.841C105.162 424.542 105.415 425.267 105.616 426.009C105.141 427.159 104.438 428.117 103.565 428.805C102.003 430.092 96.6318 434.35 94.6671 437.175C92.514 440.726 90.6031 444.511 88.9512 448.498C86.1893 454.078 82.0269 458.273 77.0119 460.53C71.2382 462.891 62.9596 463.812 57.1563 461.734C51.3529 459.657 50.8527 458.235 50.2598 457.426C49.4162 455.182 48.952 452.795 48.8988 450.427C49.0698 449.392 49.8065 449.462 51.2543 449.812Z" fill="#455A64"/>
<path d="M73.8828 432.512C69.4913 429.347 65.954 428.275 64.5454 428.893C63.9883 429.41 63.6111 430.17 63.4747 431.048C63.4747 431.048 66.3847 430.673 72.5501 434.755C72.9619 434.654 73.3177 434.378 73.5595 433.971C73.8014 433.564 73.9153 433.05 73.8828 432.512V432.512Z" fill="#455A64"/>
<path d="M66.7769 423.361C70.1976 423.123 73.7202 424.54 76.6289 427.326C77.0137 427.189 77.3427 426.906 77.5738 426.513C77.8049 426.12 77.9275 425.635 77.9257 425.12C77.9257 425.12 72.8869 420.266 67.611 421.083C67.6086 421.066 66.4948 422.028 66.7769 423.361Z" fill="#455A64"/>
<path d="M69.4518 415.7C71.6682 414.385 77.7808 417.204 80.1563 419.485C80.3819 419.45 80.5939 419.357 80.7796 419.212C80.9653 419.067 81.121 418.873 81.2372 418.641C81.3535 418.41 81.4279 418.145 81.4561 417.864C81.4843 417.583 81.4656 417.291 81.4011 417.005C78.1119 413.99 74.1812 412.488 70.3761 412.792C70.3761 412.792 68.8692 413.885 69.4518 415.7Z" fill="#455A64"/>
<path d="M71.6496 408.454C73.5142 408.081 75.4659 408.195 77.3873 408.789C79.3086 409.383 81.1599 410.445 82.8296 411.911C83.1784 411.674 83.4504 411.305 83.6114 410.849C83.7723 410.394 83.815 409.872 83.734 409.35C82.0851 407.669 80.1814 406.461 78.1837 405.83C76.186 405.199 74.1529 405.163 72.256 405.724C71.78 406.468 71.5641 407.441 71.6496 408.454V408.454Z" fill="#455A64"/>
<path d="M111.342 332.908C112.201 338.468 125.944 425.24 126.31 427.764C126.819 432.622 127.011 437.475 126.882 442.276C126.706 444.265 126.385 446.208 125.923 448.084C125.633 450.133 128.31 448.577 129.414 450.391C129.944 451.225 130.589 451.941 131.312 452.497C134.546 455.009 138.284 455.991 141.762 455.24C143.614 454.941 145.308 454.015 146.668 452.559C149.288 449.515 149.671 444.598 150.563 440.373C151.567 435.777 150.078 433.66 149.496 428.896C148.847 423.564 147.235 340.876 147.154 335.575C138.676 326.814 119.256 328.977 111.342 332.908Z" fill="#FFB573"/>
<path d="M104.936 298.803C104.357 294.161 101.849 282.974 109.3 273.369C119.085 260.74 146.575 240.05 146.575 240.05C140.916 229.568 127.236 211.248 127.399 204.455C126.411 197.378 129.764 188.681 132.167 183.988C138.536 197.976 184.38 195.975 203.38 191.691C215.396 218.33 216.1 236.25 212.541 253.494C210.471 263.419 201.292 275.087 195.836 279.628C171.792 299.264 157.471 304.16 146.546 310.191C148.253 317.99 149.124 325.918 149.135 333.755C149.371 345.272 148.996 372.65 148.445 386.684C142.401 393.885 122.325 390.665 118.933 386.304C114.978 365.835 108.057 323.614 104.936 298.803Z" fill="#37474F"/>
<path d="M149.249 424.577C150.903 425.122 151.119 427.361 150.355 429.357C149.973 430.398 149.53 431.396 149.031 432.345L149.249 424.577Z" fill="#6C63FF"/>
<path opacity="0.3" d="M149.249 424.577C150.903 425.122 151.119 427.361 150.355 429.357C149.973 430.398 149.53 431.396 149.031 432.345L149.249 424.577Z" fill="black"/>
<path d="M117.269 463.409C119.675 458.542 125.088 442.886 125.719 438.264C126.349 433.641 124.233 430.371 127.991 430.96C131.749 431.55 136.966 431.691 137.949 434.311C138.932 436.931 138.087 443.355 135.27 451.372C132.453 459.39 125.892 467.806 125.892 467.806L117.269 463.409Z" fill="#6C63FF"/>
<path opacity="0.1" d="M117.269 463.409C119.675 458.542 125.088 442.886 125.719 438.264C126.349 433.641 124.233 430.371 127.991 430.96C131.749 431.55 136.966 431.691 137.949 434.311C138.932 436.931 138.087 443.355 135.27 451.372C132.453 459.39 125.892 467.806 125.892 467.806L117.269 463.409Z" fill="black"/>
<path d="M103.986 488.317C104.04 490.273 104.36 491.587 110.085 493.687C115.809 495.787 123.933 495.137 130.495 492.531C137.058 489.925 141.839 481.633 143.903 475.887C145.968 470.142 151.089 464.583 154.539 461.587C157.988 458.59 158.657 457.485 158.112 455.841C157.567 454.196 155.914 449.923 155.914 449.923L103.986 488.317Z" fill="#EBEBEB"/>
<path d="M149.249 424.577C150.653 425.59 150.34 428.56 148.644 431.245C148.025 432.901 148.203 438.404 146.446 439.375C144.689 440.347 142.309 436.072 140.204 436.218C138.099 436.364 136.774 441.122 134.661 447.009C132.548 452.897 126.369 466.212 125.133 466.298C123.897 466.383 119.068 462.937 117.264 463.375C114.919 466.974 112.401 470.385 109.721 473.593C105.943 477.966 104.596 479.325 103.466 480.462C102.335 481.598 102.613 485.551 103.64 487.804C104.668 490.056 115.542 494.956 125.764 491.056C135.985 487.155 138.217 481.034 140.853 473.393C142.815 467.687 146.004 462.9 150.105 459.501C152.675 457.687 154.879 455.226 156.596 452.252C156.777 449.119 156.325 445.886 155.282 442.838C153.537 437.409 151.631 432.893 151.583 428.422C151.535 423.95 149.186 422.552 149.186 422.552C149.186 422.552 149.245 423.364 149.249 424.577Z" fill="#6C63FF"/>
<path d="M104.624 482.862C106.655 483.362 108.878 483.867 109.01 484.812C109.142 485.757 110.076 491.069 111.366 492.748C111.975 493.504 112.702 494.092 113.487 494.465C114.273 494.838 115.095 494.986 115.89 494.897C117.777 494.957 125.71 494.407 130.076 492.179C134.885 489.87 138.845 485.708 141.438 480.238C144.665 473.875 144.947 470.889 149.626 465.795C154.305 460.701 156.22 459.874 158.163 456.895C158.457 457.605 158.71 458.335 158.92 459.08C158.443 460.23 157.734 461.184 156.853 461.859C155.305 463.146 149.933 467.404 147.971 470.246C145.812 473.786 143.9 477.567 142.253 481.552C139.495 487.136 135.331 491.332 130.313 493.584C124.542 495.962 116.261 496.866 110.458 494.788C104.654 492.711 104.154 491.289 103.564 490.497C102.72 488.253 102.256 485.866 102.203 483.498C102.418 482.39 103.176 482.511 104.624 482.862Z" fill="#455A64"/>
<path d="M127.279 465.559C122.874 462.396 119.353 461.339 117.942 461.94C117.381 462.454 117.003 463.215 116.871 464.096C116.871 464.096 119.784 463.737 125.947 467.802C126.36 467.705 126.717 467.43 126.959 467.022C127.201 466.614 127.314 466.098 127.279 465.559V465.559Z" fill="#455A64"/>
<path d="M120.146 456.411C123.567 456.188 127.085 457.603 129.998 460.375C130.386 460.243 130.718 459.959 130.947 459.561C131.176 459.163 131.292 458.672 131.279 458.153C131.279 458.153 126.254 453.299 120.978 454.115C120.978 454.115 119.862 455.164 120.146 456.411Z" fill="#455A64"/>
<path d="M122.78 448.753C124.983 447.438 131.098 450.274 133.471 452.538C133.698 452.505 133.912 452.414 134.099 452.27C134.287 452.126 134.444 451.932 134.562 451.7C134.679 451.468 134.755 451.203 134.784 450.92C134.813 450.638 134.794 450.344 134.73 450.057C131.441 447.044 127.51 445.548 123.707 445.861C123.707 445.861 122.241 446.952 122.78 448.753Z" fill="#455A64"/>
<path d="M125.005 441.505C126.873 441.135 128.828 441.252 130.752 441.849C132.676 442.446 134.529 443.51 136.201 444.977C136.552 444.739 136.825 444.367 136.986 443.908C137.146 443.449 137.187 442.924 137.103 442.4C135.453 440.722 133.549 439.517 131.552 438.886C129.555 438.255 127.523 438.216 125.625 438.773C125.149 439.519 124.928 440.49 125.005 441.505V441.505Z" fill="#455A64"/>
<path d="M231.067 167.856C226.726 169.545 222.489 169.731 218.474 168.41C215.985 167.642 213.584 166.342 211.294 164.521C208.354 162.407 205.713 158.972 203.473 154.345C199.153 144.853 197.324 129.622 196.632 113.855C195.939 98.0873 196.242 81.3766 195.586 65.5711C195.44 58.9426 194.744 52.85 193.539 47.6416C192.931 45.0466 192.038 43.0425 190.931 41.7881C189.824 40.5337 188.533 40.0634 187.16 40.4145C185.135 41.22 182.875 44.1471 181.165 42.7126C178.986 40.6984 179.427 31.6282 181.395 25.9491C185.153 15.0836 191.717 11.1823 196.971 10.206C198.341 9.95882 199.636 9.91677 200.755 9.98045C208.347 10.4367 213.614 20.314 217.043 34.8975C219.106 44.1523 220.673 54.2827 221.716 65.1067C222.857 75.7235 224.454 86.6598 228.014 92.5622C232.136 99.444 238.115 97.6175 243.702 91.992C246.943 88.7224 250.485 84.2874 253.298 86.2573C254.335 87.0179 255.219 88.429 255.884 90.388C256.55 92.347 256.982 94.8043 257.147 97.5811C257.451 103.188 257.121 109.347 256.189 115.453C255.008 123.993 253.111 132.298 250.645 139.725C248.179 147.153 245.209 153.505 241.965 158.291C238.418 163.232 234.707 166.489 231.067 167.856Z" fill="#313537"/>
<path d="M214.418 34.3374C211.854 25.1105 204.41 16.5791 185.501 15.1444C173.682 13.8602 164.249 17.0517 150.154 15.7284C143.753 15.1315 137.876 14.8122 133.177 16.2983C127.84 17.9949 124.073 21.8573 123.634 26.8935C123.377 29.5579 124.508 32.0667 126.814 33.9482C121.179 38.9595 123.913 47.4747 134.149 49.5398L139.358 75.2485C139.358 75.2485 184.817 84.2947 186.106 78.4852C197.343 67.0843 220.845 57.1831 214.418 34.3374Z" fill="#313537"/>
<path d="M182.913 87.6164L188.569 67.3546C188.569 67.3546 191.682 70.821 199.23 67.3963C206.003 64.3185 210.045 57.5428 206.567 53.9478C204.117 51.4006 195.079 49.8828 190.242 55.1886C190.242 55.1886 179.516 54.6337 166.99 47.2529C154.463 39.872 152.515 33.4888 144.016 32.6543C139.464 34.8068 134.072 41.2545 130.69 58.4805C128.189 71.2169 134.813 77.4259 138.513 79.6637C141.443 81.4953 145.198 81.4238 152.988 81.099L151.645 88.597C136.18 98.368 163.67 100.513 182.913 87.6164Z" fill="#FFB573"/>
<path d="M162.261 53.0885C162.144 53.5458 162.218 53.9993 162.473 54.3925C162.728 54.7857 163.153 55.1011 163.695 55.2993C164.237 55.4975 164.872 55.5698 165.521 55.507C166.169 55.4442 166.803 55.2492 167.342 54.9464C167.881 54.6435 168.302 54.2463 168.552 53.8042C168.802 53.3621 168.87 52.8948 168.748 52.4607C168.626 52.0266 168.318 51.6449 167.865 51.3634C167.411 51.0818 166.831 50.9129 166.196 50.8776C165.326 50.8434 164.426 51.0561 163.689 51.4697C162.953 51.8834 162.44 52.4648 162.261 53.0885V53.0885Z" fill="#263238"/>
<path d="M135.712 47.1531L143.148 43.9518C142.923 43.6313 142.604 43.3543 142.208 43.1368C141.813 42.9193 141.349 42.7657 140.844 42.6848C140.339 42.604 139.803 42.5975 139.266 42.6657C138.729 42.734 138.203 42.8756 137.717 43.0824C136.722 43.5097 135.954 44.1759 135.579 44.9373C135.204 45.6988 135.251 46.4945 135.712 47.1531V47.1531Z" fill="#263238"/>
<path d="M138.871 53.6449C138.772 53.952 138.759 54.2619 138.833 54.5564C138.907 54.8508 139.066 55.124 139.301 55.3597C139.536 55.5955 139.842 55.7891 140.202 55.9292C140.561 56.0693 140.967 56.153 141.395 56.1756C142.266 56.2132 143.169 56.0018 143.906 55.5874C144.644 55.1731 145.156 54.5896 145.33 53.9646C145.418 53.6595 145.422 53.3531 145.341 53.0629C145.26 52.7727 145.096 52.5043 144.858 52.2732C144.621 52.042 144.314 51.8526 143.955 51.7157C143.597 51.5788 143.194 51.4971 142.77 51.4753C142.346 51.4535 141.908 51.492 141.482 51.5886C141.057 51.6852 140.651 51.838 140.289 52.0383C139.926 52.2386 139.614 52.4825 139.371 52.756C139.127 53.0296 138.956 53.3274 138.868 53.6325L138.871 53.6449Z" fill="#263238"/>
<path d="M154.286 49.8912L153.004 63.9488L141.983 62.748L154.286 49.8912Z" fill="#CA9261"/>
<path d="M151.145 72.7252C149.495 73.0987 147.904 72.4897 147.592 71.3649C147.279 70.2401 148.363 69.0255 150.013 68.652C151.663 68.2785 153.254 68.8875 153.566 70.0123C153.879 71.1371 152.795 72.3517 151.145 72.7252Z" fill="#FB4B69"/>
<path d="M152.887 81.0823C160.629 80.5175 176.906 77.6377 180.287 73.3612C178.837 75.5575 176.506 77.4694 173.617 78.8311C168.349 81.5417 152.364 84.5666 152.364 84.5666L152.887 81.0823Z" fill="#A07248"/>
<path d="M190.509 53.9927L188.947 61.0518C188.031 61.0442 187.149 60.9077 186.354 60.6501C185.558 60.3925 184.864 60.0189 184.311 59.5506C183.758 59.0823 183.358 58.5285 183.132 57.9211C182.906 57.3136 182.86 56.6643 182.996 56.0104L184.507 49.1872L190.509 53.9927Z" fill="#313537"/>
<path d="M204.259 192.969C202.174 184.114 199.12 175.292 199.12 175.292C199.12 175.292 200.774 163.169 203.842 148.639C206.821 134.659 206.925 109.983 206.508 105.805C205.599 96.8287 202.204 91.8764 193.431 89.4002L176.064 87.5087L148.286 87.9214C144.309 87.9214 130.04 101.953 120.463 118.702C115.131 128.004 112.658 142.053 124.544 155.896C124.037 165.817 128.044 180.434 128.044 180.434C128.044 180.434 124.812 196.752 150.386 201.877C185.358 208.927 204.259 192.969 204.259 192.969Z" fill="#FFB573"/>
<path d="M196.007 89.4002L176.064 87.5087L148.286 87.9214C144.309 87.9214 130.04 101.953 120.463 118.702C115.131 128.004 112.196 142.07 124.097 155.913C123.972 159.677 124.374 163.44 125.289 167.056C125.289 167.056 161.333 193.296 200.55 165.817C201.34 161.157 202.427 155.139 203.797 148.622C206.776 134.642 206.88 109.966 206.463 105.788C205.599 96.8287 204.78 91.8764 196.007 89.4002Z" fill="#6C63FF"/>
<path d="M139.892 136.592C139.892 136.592 145.433 147.322 159.538 147.528C165.129 147.648 170.603 145.677 175.143 141.908C179.682 138.139 183.044 132.775 184.725 126.618C184.725 126.618 183.101 149.901 161.504 152.412C143.735 154.544 139.892 136.592 139.892 136.592Z" fill="#4238E2"/>
<path d="M47.7855 138.53C46.6691 139.35 44.8399 142.479 46.2251 145.298C46.2593 145.476 46.2224 145.67 46.1167 145.864C46.011 146.058 45.8392 146.249 45.6131 146.423C45.387 146.598 45.1119 146.752 44.8068 146.874C44.5017 146.996 44.1739 147.085 43.8459 147.133C39.9993 147.946 26.6497 150.382 24.4039 150.978C22.3971 151.469 20.2625 152.434 22.0072 152.603C25.4069 152.544 28.8713 152.334 32.3732 151.975C28.5852 152.329 20.4884 153.188 20.3037 154.13C20.1876 154.658 21.5753 154.994 25.0545 154.826C23.3638 154.954 21.6338 155.256 19.9415 155.718C16.5934 157.329 30.2716 156.241 30.2716 156.241C20.7038 157.047 20.9442 156.75 20.4741 157.524C20.1227 158.109 22.1106 158.322 27.1168 158.328C31.2027 158.33 35.1813 158.833 41.2982 159.045L113.183 156.849C118.257 156.696 123.544 155.913 128.723 154.548C133.901 153.184 138.861 151.266 143.301 148.912L202.369 117.598C203.153 117.305 203.824 116.889 204.274 116.415C204.724 115.942 204.928 115.438 204.852 114.984C204.611 114.03 203.687 113.29 202.279 112.923C198.8 111.845 193.948 112.269 189.375 112.902C179.726 114.196 170.218 115.797 160.735 118.559L121.008 141.831L54.6805 146.183C54.0036 145.698 53.2325 145.117 52.3797 144.365C51.6591 143.739 51.1666 143.009 50.9224 142.207C50.5558 141.219 50.4392 140.164 50.5757 139.07C50.8251 138.025 48.914 137.699 47.7855 138.53Z" fill="#FFB573"/>
</svg>
